<?xml version="1.0" encoding="UTF-8" standalone="no"?>
<!DOCTYPE svg PUBLIC "-//W3C//DTD SVG 1.1//EN" "http://www.w3.org/Graphics/SVG/1.1/DTD/svg11.dtd">
<svg xmlns="http://www.w3.org/2000/svg" version="1.1" viewBox="0.00 0.00 500.00 500.00">
<g stroke-width="2.00" fill="none" stroke-linecap="butt">
<path stroke="#7fc1e1" vector-effect="non-scaling-stroke" d="
  M 174.13 123.13
  Q 160.81 144.59 159.57 169.34
  Q 159.54 169.84 159.04 169.84
  Q 140.97 169.75 122.92 169.83
  C 118.20 169.85 113.40 170.84 114.05 176.52
  Q 114.46 180.12 117.48 181.90
  Q 119.38 183.02 123.24 183.02
  Q 250.41 183.00 377.58 183.01
  Q 381.25 183.01 383.11 181.73
  C 388.99 177.67 386.81 169.87 379.24 169.83
  Q 360.31 169.71 341.34 169.83
  Q 340.86 169.83 340.83 169.35
  C 339.18 140.60 326.07 115.31 303.32 98.11
  C 261.07 66.15 202.23 77.84 174.13 123.13"
/>
<path stroke="#7fc1e1" vector-effect="non-scaling-stroke" d="
  M 288.65 300.29
  Q 290.63 303.38 293.24 306.00
  C 314.10 326.92 323.26 269.24 324.68 259.65
  C 326.11 250.04 327.20 239.51 328.81 230.81
  Q 331.98 213.79 336.87 197.11
  Q 337.04 196.55 336.45 196.54
  L 324.29 196.53
  Q 323.72 196.53 323.58 197.08
  C 316.63 223.41 312.31 253.00 308.40 272.63
  Q 307.35 277.90 304.15 288.13
  Q 304.00 288.62 303.58 288.91
  Q 301.18 290.61 298.26 289.86
  Q 297.72 289.72 297.43 289.24
  Q 285.46 268.99 278.31 246.56
  Q 275.76 238.57 271.78 231.25
  C 264.41 217.70 247.33 211.94 235.32 223.56
  Q 227.82 230.81 224.12 241.69
  Q 222.06 247.72 222.05 247.77
  Q 218.02 258.55 213.90 269.30
  Q 212.24 273.63 210.04 278.32
  Q 207.92 282.83 205.87 287.38
  Q 205.65 287.85 205.14 287.90
  Q 203.48 288.04 202.67 289.47
  Q 202.40 289.95 201.85 290.02
  Q 198.68 290.40 196.38 288.21
  Q 195.99 287.83 195.91 287.30
  C 195.34 283.82 193.88 280.07 193.21 277.18
  C 192.36 273.57 191.30 269.83 190.69 266.26
  Q 184.80 231.61 178.92 197.74
  Q 178.71 196.54 177.49 196.54
  L 164.03 196.55
  Q 163.41 196.55 163.59 197.14
  C 168.74 214.91 171.91 231.42 174.39 250.68
  C 176.04 263.47 182.09 303.65 194.72 309.56
  C 210.86 317.12 227.58 269.01 231.52 259.24
  Q 235.26 249.94 240.10 240.10
  Q 242.76 234.70 247.46 231.83
  C 252.86 228.53 257.46 234.69 259.90 238.99
  C 262.28 243.16 265.10 249.18 267.18 254.68
  Q 272.96 269.95 280.37 286.02
  C 282.78 291.24 285.65 295.59 288.65 300.29"
/>
<path stroke="#7fc1e1" vector-effect="non-scaling-stroke" d="
  M 254.25 326.89
  L 269.51 326.89
  A 0.80 0.80 0.0 0 0 270.01 325.47
  L 264.90 321.39
  A 0.61 0.60 -51.3 0 0 264.05 321.49
  L 261.25 324.98
  A 0.97 0.96 -69.9 0 1 260.51 325.33
  L 254.31 325.32
  Q 253.85 325.32 253.71 324.88
  Q 252.68 321.68 255.13 320.41
  A 0.42 0.42 0.0 0 0 254.97 319.62
  L 247.53 319.01
  Q 247.03 318.96 247.03 319.47
  L 247.05 332.27
  Q 247.05 332.84 246.48 332.83
  L 239.94 332.77
  Q 239.37 332.77 239.37 332.19
  L 239.36 324.35
  A 0.67 0.67 0.0 0 1 239.71 323.76
  L 240.80 323.16
  A 0.51 0.51 0.0 0 0 240.59 322.20
  L 233.79 321.74
  Q 233.29 321.70 233.29 322.21
  L 233.30 332.25
  A 0.56 0.55 -90.0 0 1 232.75 332.81
  L 224.75 332.80
  A 0.60 0.60 0.0 0 0 224.15 333.51
  L 224.24 333.99
  Q 224.31 334.42 224.74 334.42
  L 275.00 334.42
  A 0.78 0.77 63.8 0 0 275.47 333.03
  L 269.75 328.58
  A 0.59 0.58 38.3 0 0 268.93 328.67
  L 265.84 332.48
  Q 265.58 332.81 265.15 332.81
  L 254.06 332.79
  Q 253.58 332.79 253.59 332.31
  L 253.62 327.50
  Q 253.63 326.89 254.25 326.89"
/>
<path stroke="#7fc1e1" vector-effect="non-scaling-stroke" d="
  M 300.69 343.62
  Q 302.45 346.19 303.16 349.27
  C 303.71 351.67 306.43 352.18 307.77 350.20
  C 310.52 346.12 304.12 342.08 301.04 341.32
  A 1.84 1.84 0.0 0 1 301.63 337.70
  Q 305.19 338.01 308.53 337.77
  A 0.74 0.74 0.0 0 0 308.98 336.49
  L 304.66 332.39
  A 0.59 0.59 0.0 0 0 303.77 332.48
  L 301.13 336.30
  A 0.47 0.47 0.0 0 1 300.27 336.03
  L 300.27 327.04
  Q 300.27 326.72 300.57 326.60
  Q 304.23 325.21 308.07 325.79
  A 0.51 0.51 0.0 0 0 308.49 324.90
  L 302.33 319.45
  Q 301.88 319.05 301.38 319.38
  Q 293.85 324.46 285.29 327.56
  A 0.47 0.46 32.1 0 0 285.50 328.46
  L 293.43 327.67
  A 0.51 0.51 0.0 0 1 293.99 328.18
  L 293.99 335.74
  Q 293.99 336.25 293.48 336.26
  Q 289.67 336.33 285.87 336.29
  Q 285.49 336.29 285.36 336.47
  Q 285.16 336.73 285.31 337.26
  A 0.76 0.74 81.9 0 0 286.01 337.80
  L 292.49 337.88
  Q 293.04 337.89 292.93 338.43
  C 291.67 344.62 288.57 354.09 284.36 358.90
  Q 284.07 359.23 284.09 359.57
  A 0.48 0.48 0.0 0 0 284.87 359.92
  Q 289.78 356.12 293.39 351.07
  Q 293.99 350.22 293.99 351.27
  L 293.99 370.30
  Q 293.99 370.95 294.64 370.97
  Q 297.43 371.06 299.82 369.72
  Q 300.27 369.46 300.27 368.94
  L 300.27 343.75
  Q 300.27 343.02 300.69 343.62"
/>
<path stroke="#7fc1e1" vector-effect="non-scaling-stroke" d="
  M 355.37 364.69
  L 355.37 325.50
  Q 355.37 324.88 355.99 324.88
  L 394.57 324.93
  A 0.74 0.73 63.5 0 0 395.01 323.61
  L 389.25 319.20
  Q 388.86 318.90 388.55 319.29
  L 385.63 322.89
  A 1.09 1.09 0.0 0 1 384.80 323.30
  Q 371.44 323.40 358.07 323.31
  C 354.83 323.29 352.36 321.79 349.33 320.78
  Q 348.71 320.58 348.71 321.22
  L 348.71 370.70
  Q 348.71 371.07 349.08 371.09
  C 351.17 371.22 356.42 370.85 355.29 367.83
  A 0.70 0.69 79.8 0 1 355.94 366.89
  L 396.73 366.90
  A 0.74 0.73 64.2 0 0 397.18 365.59
  L 391.19 360.80
  A 0.59 0.57 38.7 0 0 390.37 360.88
  L 387.13 364.85
  Q 386.80 365.26 386.27 365.26
  L 355.94 365.26
  Q 355.37 365.26 355.37 364.69"
/>
<path stroke="#7fc1e1" vector-effect="non-scaling-stroke" d="
  M 430.53 328.60
  L 449.84 328.63
  Q 450.29 328.64 450.21 329.09
  L 449.64 332.28
  Q 449.56 332.76 449.09 332.61
  L 448.79 332.51
  A 0.67 0.65 27.0 0 0 448.05 332.74
  L 445.62 335.99
  Q 445.31 336.41 444.79 336.41
  L 427.02 336.42
  Q 426.51 336.42 426.51 336.93
  Q 426.50 337.39 426.80 337.68
  Q 427.11 337.97 427.80 337.97
  Q 440.28 337.99 453.10 337.98
  A 0.76 0.76 0.0 0 0 453.60 336.64
  L 450.57 334.05
  Q 450.07 333.62 450.65 333.30
  L 457.93 329.20
  Q 458.37 328.96 458.01 328.61
  L 453.50 324.30
  Q 453.03 323.84 452.58 324.32
  L 450.35 326.68
  A 1.22 1.21 -68.1 0 1 449.47 327.06
  L 443.23 327.03
  Q 442.67 327.03 442.67 326.48
  L 442.67 321.98
  Q 442.67 321.38 443.18 321.07
  L 444.19 320.45
  Q 445.26 319.79 444.01 319.69
  L 436.76 319.11
  Q 436.35 319.07 436.35 319.49
  L 436.36 326.61
  A 0.47 0.47 0.0 0 1 435.89 327.09
  L 430.36 327.07
  Q 429.85 327.07 429.71 326.58
  L 428.78 323.51
  A 0.57 0.57 0.0 0 0 427.66 323.70
  C 427.81 327.29 426.00 328.45 423.81 330.91
  C 419.83 335.37 430.26 338.95 429.95 329.19
  Q 429.93 328.60 430.53 328.60"
/>
<path stroke="#7fc1e1" vector-effect="non-scaling-stroke" d="
  M 414.00 355.48
  A 1.13 1.13 0.0 0 1 416.17 355.03
  Q 416.97 356.88 416.86 359.17
  Q 416.83 359.73 417.40 359.75
  C 421.96 359.90 424.18 357.01 424.34 352.64
  Q 424.64 344.63 417.87 338.84
  Q 417.35 338.40 417.70 337.81
  L 424.47 326.44
  A 0.74 0.72 -80.7 0 1 424.93 326.10
  L 426.26 325.81
  A 0.48 0.48 0.0 0 0 426.49 324.99
  L 421.26 320.05
  A 0.49 0.49 0.0 0 0 420.49 320.17
  C 417.55 325.40 412.50 322.03 408.66 320.62
  Q 408.11 320.42 408.11 321.01
  L 408.10 370.31
  Q 408.10 370.96 408.76 370.98
  Q 411.28 371.05 413.42 369.80
  A 1.19 1.17 75.0 0 0 414.00 368.78
  L 414.00 355.48"
/>
<path stroke="#7fc1e1" vector-effect="non-scaling-stroke" d="
  M 329.50 350.72
  L 329.50 323.49
  Q 329.50 323.08 329.84 322.85
  L 331.20 321.94
  A 0.46 0.46 0.0 0 0 330.99 321.10
  L 323.79 320.34
  Q 323.16 320.27 323.16 320.91
  L 323.16 351.95
  A 0.74 0.74 0.0 0 1 322.55 352.68
  L 305.37 355.89
  Q 304.96 355.96 304.96 356.37
  L 304.96 356.91
  A 0.61 0.60 -5.1 0 0 305.68 357.51
  L 322.66 354.25
  A 0.43 0.43 0.0 0 1 323.17 354.67
  L 323.15 370.01
  Q 323.15 370.71 323.85 370.72
  Q 326.66 370.74 328.99 369.24
  Q 329.50 368.92 329.50 368.31
  L 329.50 353.48
  Q 329.50 352.94 330.03 352.84
  L 337.11 351.45
  A 0.80 0.79 59.1 0 0 337.46 350.05
  L 333.28 346.65
  Q 332.52 346.03 332.08 346.90
  L 330.10 350.86
  Q 329.50 352.07 329.50 350.72"
/>
<path stroke="#7fc1e1" vector-effect="non-scaling-stroke" d="
  M 124.61 329.17
  C 125.30 327.19 127.11 323.59 124.78 322.32
  Q 120.30 319.89 115.93 322.33
  A 0.43 0.43 0.0 0 0 115.98 323.11
  Q 121.28 325.23 118.84 330.87
  Q 118.64 331.32 118.18 331.45
  Q 111.46 333.40 106.21 329.06
  A 0.47 0.46 -71.3 0 0 105.45 329.44
  C 105.71 336.52 110.98 337.09 116.68 336.75
  Q 117.29 336.71 117.08 337.28
  Q 113.94 345.82 108.26 352.89
  C 106.64 354.90 104.49 359.87 108.28 361.02
  C 113.54 362.63 121.15 339.94 122.24 336.37
  Q 122.39 335.89 122.88 335.79
  C 125.60 335.21 130.75 334.02 132.58 331.84
  C 134.20 329.91 132.77 327.78 130.49 327.59
  A 1.00 0.85 -49.5 0 0 130.05 327.66
  L 125.16 329.68
  Q 124.31 330.03 124.61 329.17"
/>
<path stroke="#7fc1e1" vector-effect="non-scaling-stroke" d="
  M 183.06 343.81
  C 176.91 348.47 169.27 357.92 176.09 364.27
  C 182.06 369.83 195.95 368.69 203.48 366.89
  C 204.97 366.54 206.25 365.67 206.71 364.28
  A 2.42 2.42 0.0 0 0 205.65 361.43
  C 203.43 360.10 201.17 360.00 198.46 360.67
  C 194.17 361.73 178.49 364.09 177.56 357.56
  C 176.29 348.70 196.43 340.93 203.14 338.91
  C 204.88 338.38 206.12 337.05 205.20 335.24
  Q 202.54 329.96 196.20 330.32
  Q 195.39 330.36 195.93 330.98
  L 197.67 332.97
  A 1.21 1.21 0.0 0 1 197.37 334.82
  L 188.01 340.30
  A 0.71 0.71 0.0 0 1 187.12 340.15
  C 183.72 336.19 184.05 331.40 184.55 326.47
  A 1.22 1.22 0.0 0 0 184.23 325.53
  Q 179.67 320.60 173.33 323.14
  A 0.56 0.56 0.0 0 0 173.25 324.14
  L 177.01 326.39
  Q 177.54 326.71 177.63 327.33
  C 178.43 332.81 178.66 339.13 183.09 343.05
  Q 183.54 343.45 183.06 343.81"
/>
<path stroke="#7fc1e1" vector-effect="non-scaling-stroke" d="
  M 64.86 343.31
  Q 69.08 335.63 75.89 330.19
  A 1.76 1.76 0.0 0 0 76.20 327.77
  Q 73.91 324.67 70.24 323.45
  A 1.32 1.31 -51.0 0 0 69.15 323.57
  Q 66.15 325.35 62.80 326.23
  C 58.90 327.25 55.61 328.65 53.63 324.74
  A 0.51 0.51 0.0 0 0 52.68 324.86
  Q 51.44 330.33 56.40 332.89
  Q 58.14 333.79 59.71 332.66
  Q 63.07 330.25 67.08 328.69
  A 0.62 0.62 0.0 0 1 67.84 329.58
  L 59.45 343.90
  A 1.15 1.15 0.0 0 1 58.67 344.43
  C 50.03 345.95 40.12 352.01 45.66 362.04
  C 49.21 368.45 55.47 362.44 57.40 358.30
  Q 59.90 352.92 62.43 347.50
  Q 62.66 347.00 63.21 347.02
  Q 71.97 347.38 79.04 352.45
  A 0.66 0.66 0.0 0 1 79.25 353.27
  Q 73.83 364.69 61.73 368.61
  A 0.53 0.52 33.5 0 0 61.94 369.63
  Q 76.05 368.52 83.96 357.11
  Q 84.24 356.70 84.61 357.03
  C 86.33 358.59 88.95 361.78 91.55 360.86
  Q 93.33 360.22 93.24 357.99
  C 93.08 354.12 89.75 352.22 86.91 350.28
  Q 86.42 349.95 86.52 349.36
  L 87.76 342.05
  A 0.87 0.83 34.5 0 0 87.63 341.43
  Q 84.20 336.39 78.64 338.86
  A 0.55 0.55 0.0 0 0 78.63 339.86
  Q 82.94 341.85 80.96 346.62
  Q 80.78 347.05 80.35 346.88
  Q 73.01 344.10 65.17 343.84
  Q 64.58 343.82 64.86 343.31"
/>
<path stroke="#7fc1e1" vector-effect="non-scaling-stroke" d="
  M 313.55 330.35
  C 314.27 331.68 314.48 334.31 316.36 334.96
  C 320.05 336.25 321.68 331.65 319.51 328.95
  Q 316.48 325.20 310.41 325.09
  Q 309.80 325.08 310.20 325.54
  Q 312.15 327.80 313.55 330.35"
/>
<path stroke="#7fc1e1" vector-effect="non-scaling-stroke" d="
  M 369.39 333.11
  L 371.32 330.13
  Q 371.62 329.67 372.14 329.51
  L 373.43 329.11
  A 0.46 0.46 0.0 0 0 373.44 328.24
  L 366.29 325.84
  A 0.64 0.63 -73.5 0 0 365.47 326.29
  Q 363.34 334.67 358.04 341.48
  A 0.40 0.40 0.0 0 0 358.53 342.08
  Q 363.43 339.72 367.13 335.78
  Q 367.55 335.33 368.16 335.32
  L 370.90 335.29
  Q 371.53 335.28 371.51 335.90
  L 371.29 343.00
  Q 371.27 343.53 370.75 343.53
  L 357.92 343.52
  Q 357.36 343.52 357.44 344.07
  L 357.50 344.50
  Q 357.60 345.15 358.25 345.14
  L 370.49 345.11
  Q 370.90 345.11 370.87 345.51
  C 370.21 353.83 364.32 358.64 357.21 361.30
  A 0.43 0.43 0.0 0 0 357.43 362.12
  C 364.61 360.89 372.57 357.35 376.00 350.37
  Q 376.23 349.89 376.66 350.20
  Q 382.17 354.19 385.83 359.96
  C 388.33 363.90 393.12 358.93 390.26 354.81
  C 387.64 351.03 381.62 349.00 377.23 348.58
  A 0.46 0.46 0.0 0 1 376.83 348.01
  L 377.39 345.74
  Q 377.54 345.15 378.15 345.15
  L 394.29 345.11
  A 0.65 0.65 0.0 0 0 394.70 343.96
  L 389.13 339.42
  Q 388.69 339.06 388.35 339.51
  L 385.53 343.13
  A 1.07 1.04 -70.1 0 1 384.71 343.53
  L 378.27 343.52
  Q 377.78 343.52 377.81 343.02
  L 378.28 335.76
  Q 378.31 335.33 378.74 335.33
  L 391.32 335.30
  A 0.67 0.67 0.0 0 0 391.73 334.11
  L 386.35 329.82
  Q 385.90 329.46 385.53 329.91
  L 382.77 333.36
  A 1.04 1.03 19.2 0 1 381.96 333.75
  L 369.73 333.75
  Q 368.98 333.75 369.39 333.11"
/>
<path stroke="#7fc1e1" vector-effect="non-scaling-stroke" d="
  M 133.08 353.52
  C 128.48 353.22 122.40 354.59 120.16 359.06
  C 114.37 370.64 140.72 374.25 139.22 360.47
  A 0.39 0.39 0.0 0 1 139.79 360.09
  Q 143.57 362.19 146.91 365.87
  Q 148.15 367.25 150.30 366.45
  Q 150.81 366.26 151.01 365.74
  C 153.40 359.62 143.42 355.62 139.20 354.42
  Q 138.72 354.28 138.60 353.80
  C 136.83 346.46 134.34 336.64 147.16 341.14
  C 151.23 342.57 151.51 338.40 150.37 335.90
  C 148.16 331.11 140.85 330.40 136.46 331.94
  A 0.52 0.52 0.0 0 0 136.59 332.95
  Q 139.43 333.22 141.77 334.69
  A 1.06 1.06 0.0 0 1 141.63 336.56
  C 133.67 340.01 133.07 344.97 133.59 353.01
  Q 133.63 353.56 133.08 353.52"
/>
<path stroke="#7fc1e1" vector-effect="non-scaling-stroke" d="
  M 252.62 346.77
  L 252.63 339.16
  Q 252.63 338.60 253.09 338.29
  L 254.41 337.40
  Q 255.29 336.81 254.24 336.71
  L 247.29 336.02
  Q 246.79 335.97 246.80 336.46
  L 246.82 346.96
  Q 246.82 347.49 246.29 347.49
  L 236.16 347.49
  Q 235.40 347.49 235.65 348.21
  L 235.79 348.61
  A 0.62 0.61 -9.3 0 0 236.37 349.02
  L 243.75 349.01
  Q 244.32 349.01 244.09 349.54
  Q 241.02 356.42 235.21 361.22
  A 0.43 0.42 -76.0 0 0 235.64 361.94
  Q 241.59 359.43 246.31 355.02
  Q 246.84 354.53 246.84 355.25
  L 246.79 363.16
  Q 246.79 363.84 247.45 363.69
  L 252.02 362.65
  Q 252.63 362.51 252.63 361.87
  L 252.62 352.27
  Q 252.62 351.63 253.11 352.05
  Q 256.83 355.26 259.04 359.68
  A 2.24 2.24 0.0 0 0 262.38 360.49
  C 263.96 359.32 264.06 357.50 263.03 355.88
  C 260.89 352.51 256.74 351.39 253.09 350.71
  A 0.85 0.85 0.0 0 1 253.24 349.03
  L 264.55 349.02
  A 0.59 0.59 0.0 0 0 264.92 347.97
  L 260.44 344.34
  A 0.63 0.63 0.0 0 0 259.47 344.56
  Q 257.63 348.56 253.07 347.36
  Q 252.62 347.24 252.62 346.77"
/>
<path stroke="#7fc1e1" vector-effect="non-scaling-stroke" d="
  M 265.80 367.27
  L 265.78 370.41
  Q 265.78 371.09 266.45 370.95
  L 271.13 369.99
  A 1.08 1.07 -5.6 0 0 272.00 368.94
  L 272.00 339.97
  Q 272.00 339.58 272.34 339.41
  L 273.74 338.70
  A 0.46 0.45 -55.6 0 0 273.58 337.84
  L 266.36 337.16
  A 0.50 0.49 2.7 0 0 265.81 337.65
  L 265.82 364.71
  Q 265.82 365.06 265.47 365.06
  L 234.73 365.07
  Q 234.15 365.07 234.15 364.49
  L 234.19 339.83
  A 0.86 0.84 -14.0 0 1 234.65 339.08
  L 235.69 338.53
  A 0.42 0.42 0.0 0 0 235.53 337.74
  L 228.75 337.10
  Q 228.03 337.03 228.03 337.75
  L 228.04 370.43
  Q 228.04 371.12 228.71 370.97
  L 233.37 369.94
  Q 234.19 369.76 234.20 368.91
  L 234.21 367.27
  A 0.53 0.52 90.0 0 1 234.73 366.74
  L 265.27 366.75
  Q 265.80 366.75 265.80 367.27"
/>
<path stroke="#7fc1e1" vector-effect="non-scaling-stroke" d="
  M 263.87 340.40
  A 0.30 0.30 0.0 0 0 263.96 339.82
  L 257.74 337.16
  A 0.30 0.30 0.0 0 0 257.34 337.34
  L 254.25 345.89
  A 0.30 0.30 0.0 0 0 254.72 346.23
  L 261.97 340.63
  A 0.30 0.30 0.0 0 1 262.13 340.57
  L 263.87 340.40"
/>
<path stroke="#7fc1e1" vector-effect="non-scaling-stroke" d="
  M 237.81 338.02
  C 238.45 340.31 239.62 342.11 239.93 344.45
  A 2.15 2.14 65.7 0 0 243.46 345.79
  C 247.55 342.25 241.40 338.30 238.23 337.58
  Q 237.65 337.46 237.81 338.02"
/>
<path stroke="#7fc1e1" vector-effect="non-scaling-stroke" d="
  M 318.19 342.04
  C 316.21 339.86 312.34 338.65 309.44 338.60
  A 0.43 0.42 -22.8 0 0 309.14 339.33
  Q 312.47 342.50 313.85 346.90
  A 2.55 2.54 64.9 0 0 317.65 348.28
  Q 321.57 345.78 318.19 342.04"
/>
<path stroke="#7fc1e1" vector-effect="non-scaling-stroke" d="
  M 437.92 346.47
  L 440.59 346.41
  Q 441.34 346.40 441.33 347.15
  Q 441.21 356.20 441.18 365.24
  C 441.15 371.38 450.25 369.65 454.74 369.14
  C 457.90 368.78 460.33 365.67 457.23 363.42
  Q 456.84 363.14 456.83 362.66
  L 456.73 356.07
  A 0.37 0.37 0.0 0 0 456.00 355.97
  L 453.92 362.87
  A 0.98 0.98 0.0 0 1 452.98 363.57
  L 447.80 363.57
  Q 447.28 363.57 447.28 363.05
  L 447.27 347.11
  Q 447.27 346.49 447.89 346.48
  L 457.51 346.37
  A 0.59 0.59 0.0 0 0 457.90 345.34
  L 452.85 340.85
  Q 452.31 340.38 451.90 340.95
  L 449.41 344.37
  Q 449.09 344.82 448.53 344.82
  L 424.74 344.82
  Q 424.27 344.82 424.17 345.28
  Q 424.08 345.71 424.34 346.03
  Q 424.60 346.36 425.26 346.39
  Q 427.66 346.50 430.06 346.38
  Q 430.55 346.36 430.59 346.85
  Q 431.39 357.47 424.61 365.09
  C 423.11 366.77 420.72 368.11 419.01 369.35
  Q 416.65 371.06 419.46 370.28
  Q 436.81 365.42 437.20 347.18
  Q 437.22 346.48 437.92 346.47"
/>
<path stroke="#7fc1e1" vector-effect="non-scaling-stroke" d="
  M 313.85 409.13
  L 311.46 409.99
  A 0.40 0.40 0.0 0 0 311.59 410.76
  L 321.77 410.83
  Q 321.93 410.83 321.97 410.68
  L 322.05 410.34
  Q 322.17 409.82 321.64 409.80
  C 319.90 409.73 318.91 408.81 318.89 406.99
  Q 318.73 394.77 319.09 382.49
  Q 319.11 381.94 318.60 382.14
  L 312.05 384.82
  A 0.31 0.31 0.0 0 0 312.07 385.40
  L 313.91 386.02
  A 0.98 0.97 -81.0 0 1 314.58 386.95
  L 314.52 408.18
  A 1.01 1.01 0.0 0 1 313.85 409.13"
/>
<path stroke="#7fc1e1" vector-effect="non-scaling-stroke" d="
  M 375.44 409.10
  L 373.05 409.97
  A 0.43 0.43 0.0 0 0 373.20 410.81
  L 383.48 410.80
  Q 383.69 410.80 383.69 410.60
  Q 383.70 410.46 383.72 410.32
  A 0.31 0.31 0.0 0 0 383.52 409.98
  L 381.03 409.11
  Q 380.30 408.85 380.31 408.08
  L 380.51 382.25
  A 0.18 0.18 0.0 0 0 380.27 382.08
  L 373.55 384.81
  A 0.30 0.29 44.3 0 0 373.56 385.36
  L 375.53 386.11
  A 0.93 0.92 10.7 0 1 376.12 386.97
  L 376.03 408.26
  A 0.89 0.89 0.0 0 1 375.44 409.10"
/>
<path stroke="#7fc1e1" vector-effect="non-scaling-stroke" d="
  M 363.71 384.25
  C 342.81 374.35 335.18 408.57 354.76 411.21
  Q 364.18 412.47 367.60 403.96
  A 0.52 0.50 20.8 0 0 367.29 403.29
  Q 367.07 403.21 366.83 403.28
  Q 366.52 403.37 366.26 403.86
  C 362.18 411.59 351.37 410.32 349.65 401.42
  C 348.44 395.17 348.92 383.98 357.68 384.05
  C 362.42 384.09 365.14 388.13 365.65 392.50
  A 0.53 0.52 86.9 0 0 366.17 392.97
  L 366.68 392.97
  A 0.39 0.39 0.0 0 0 367.07 392.57
  L 366.71 383.44
  Q 366.68 382.82 366.17 383.17
  L 364.66 384.18
  Q 364.21 384.49 363.71 384.25"
/>
<path stroke="#7fc1e1" vector-effect="non-scaling-stroke" d="
  M 85.61 385.69
  A 3.03 3.03 0.0 0 0 82.58 382.66
  A 3.03 3.03 0.0 0 0 79.55 385.69
  A 3.03 3.03 0.0 0 0 82.58 388.72
  A 3.03 3.03 0.0 0 0 85.61 385.69"
/>
<path stroke="#7fc1e1" vector-effect="non-scaling-stroke" d="
  M 396.11 385.68
  A 3.03 3.03 0.0 0 0 393.08 382.65
  A 3.03 3.03 0.0 0 0 390.05 385.68
  A 3.03 3.03 0.0 0 0 393.08 388.71
  A 3.03 3.03 0.0 0 0 396.11 385.68"
/>
<path stroke="#7fc1e1" vector-effect="non-scaling-stroke" d="
  M 436.61 385.69
  A 3.03 3.03 0.0 0 0 433.58 382.66
  A 3.03 3.03 0.0 0 0 430.55 385.69
  A 3.03 3.03 0.0 0 0 433.58 388.72
  A 3.03 3.03 0.0 0 0 436.61 385.69"
/>
<path stroke="#7fc1e1" vector-effect="non-scaling-stroke" d="
  M 44.73 388.08
  A 0.26 0.25 -57.5 0 1 45.22 387.97
  L 54.59 410.27
  A 0.72 0.72 0.0 0 0 55.93 410.24
  L 64.40 387.62
  A 0.12 0.12 0.0 0 1 64.63 387.66
  Q 64.77 397.09 64.56 406.61
  C 64.52 408.70 63.78 409.76 61.63 409.76
  Q 61.37 409.75 61.29 410.00
  Q 61.24 410.15 61.19 410.30
  A 0.36 0.35 10.1 0 0 61.52 410.77
  L 72.56 410.84
  A 0.40 0.40 0.0 0 0 72.97 410.50
  Q 72.99 410.37 73.01 410.24
  Q 73.09 409.71 72.56 409.69
  C 69.30 409.53 69.82 407.57 69.78 405.22
  Q 69.60 395.43 69.82 385.60
  A 0.91 0.90 79.0 0 1 70.37 384.78
  Q 71.22 384.41 72.52 384.27
  Q 73.01 384.22 72.89 383.55
  Q 72.80 383.02 72.27 383.04
  L 64.78 383.29
  A 0.72 0.70 -80.2 0 0 64.13 383.76
  L 57.27 402.48
  Q 56.95 403.37 56.59 402.50
  L 48.93 383.86
  A 0.96 0.94 79.1 0 0 48.07 383.27
  L 40.02 383.04
  A 0.49 0.49 0.0 0 0 39.52 383.48
  Q 39.49 383.65 39.46 383.81
  A 0.35 0.35 0.0 0 0 39.83 384.22
  Q 42.95 383.98 43.18 386.74
  Q 43.56 391.22 43.07 408.28
  A 0.80 0.78 -8.2 0 1 42.50 409.02
  L 39.66 409.85
  Q 39.58 409.88 39.57 409.96
  Q 39.55 410.09 39.53 410.21
  A 0.49 0.48 5.6 0 0 40.00 410.78
  L 48.03 410.80
  Q 48.35 410.80 48.44 410.49
  Q 48.48 410.36 48.52 410.24
  A 0.39 0.38 9.5 0 0 48.16 409.74
  Q 44.75 409.67 44.81 405.76
  Q 44.97 396.81 44.73 388.08"
/>
<path stroke="#7fc1e1" vector-effect="non-scaling-stroke" d="
  M 198.60 385.58
  L 198.65 408.08
  A 0.93 0.93 0.0 0 1 198.03 408.96
  L 195.43 409.86
  A 0.35 0.34 -87.3 0 0 195.24 410.04
  Q 195.20 410.16 195.15 410.27
  A 0.31 0.31 0.0 0 0 195.42 410.70
  C 204.90 411.09 218.27 413.10 220.83 400.25
  C 222.81 390.32 217.88 383.72 208.19 383.13
  Q 201.85 382.75 195.55 383.19
  A 0.45 0.45 0.0 0 0 195.48 384.07
  L 197.87 384.66
  A 0.94 0.94 0.0 0 1 198.60 385.58"
/>
<path stroke="#7fc1e1" vector-effect="non-scaling-stroke" d="
  M 142.58 395.05
  Q 142.38 400.53 142.42 406.00
  Q 142.47 412.42 148.95 411.38
  Q 150.94 411.06 151.96 409.55
  A 0.40 0.40 0.0 0 0 151.50 408.95
  L 149.18 409.73
  A 1.64 1.64 0.0 0 1 147.02 408.16
  L 147.15 395.03
  Q 147.16 394.48 147.72 394.47
  L 151.16 394.45
  Q 151.61 394.45 151.79 394.03
  Q 152.32 392.81 151.24 392.87
  Q 149.56 392.97 147.79 392.85
  Q 147.26 392.81 147.28 392.27
  L 147.48 388.06
  A 0.72 0.72 0.0 0 0 146.07 387.81
  Q 144.70 392.07 140.41 393.24
  A 0.48 0.48 0.0 0 0 140.45 394.18
  L 142.09 394.45
  Q 142.60 394.53 142.58 395.05"
/>
<path stroke="#7fc1e1" vector-effect="non-scaling-stroke" d="
  M 281.51 394.46
  L 285.00 394.46
  A 0.79 0.78 45.1 0 0 285.00 392.89
  L 281.57 392.88
  Q 281.01 392.87 281.03 392.32
  L 281.23 388.02
  A 0.52 0.51 80.8 0 0 280.53 387.51
  C 280.07 387.68 279.66 388.06 279.47 388.55
  Q 278.07 392.20 274.18 393.20
  A 0.51 0.50 41.0 0 0 274.25 394.19
  L 275.85 394.37
  A 0.48 0.48 0.0 0 1 276.27 394.85
  Q 276.25 399.78 276.23 404.72
  C 276.21 409.42 277.28 412.37 282.70 411.34
  Q 284.74 410.95 285.71 409.61
  A 0.42 0.42 0.0 0 0 285.24 408.96
  L 282.77 409.76
  A 1.10 1.07 -34.2 0 1 281.76 409.58
  Q 280.89 408.89 280.84 407.25
  Q 280.66 401.10 281.00 394.94
  Q 281.03 394.46 281.51 394.46"
/>
<path stroke="#7fc1e1" vector-effect="non-scaling-stroke" d="
  M 99.48 393.27
  L 99.53 392.15
  Q 99.55 391.48 98.94 391.76
  L 93.02 394.40
  A 0.35 0.34 -49.5 0 0 93.07 395.05
  Q 95.09 395.57 95.22 397.21
  Q 95.52 400.99 94.96 408.50
  Q 94.92 409.05 94.41 409.25
  L 92.70 409.96
  A 0.43 0.43 0.0 0 0 92.86 410.78
  L 101.74 410.81
  Q 102.18 410.82 102.16 410.38
  Q 102.14 409.75 101.51 409.69
  Q 99.79 409.52 99.68 408.01
  Q 99.30 403.03 99.66 398.05
  C 100.01 393.18 106.36 391.54 106.46 397.51
  Q 106.57 404.59 106.46 407.77
  C 106.41 409.13 105.65 409.75 104.41 409.97
  A 0.42 0.42 0.0 0 0 104.48 410.81
  L 113.49 410.78
  A 0.24 0.24 0.0 0 0 113.73 410.55
  Q 113.74 410.39 113.75 410.23
  A 0.31 0.31 0.0 0 0 113.45 409.90
  C 106.94 409.73 116.83 390.39 103.18 392.20
  C 101.91 392.37 101.10 392.90 100.03 393.58
  Q 99.46 393.95 99.48 393.27"
/>
<path stroke="#7fc1e1" vector-effect="non-scaling-stroke" d="
  M 255.04 393.46
  L 255.00 392.15
  Q 254.98 391.52 254.41 391.77
  L 248.49 394.40
  A 0.35 0.35 0.0 0 0 248.52 395.06
  L 249.72 395.46
  A 1.48 1.47 9.6 0 1 250.74 396.89
  L 250.59 408.40
  Q 250.58 409.10 249.91 409.33
  L 248.17 409.92
  A 0.45 0.45 0.0 0 0 248.31 410.79
  L 257.49 410.80
  A 0.25 0.25 0.0 0 0 257.74 410.55
  Q 257.74 410.42 257.75 410.28
  A 0.24 0.23 15.3 0 0 257.61 410.04
  L 255.73 409.28
  A 0.74 0.74 0.0 0 1 255.27 408.66
  Q 254.66 401.66 255.11 397.64
  Q 255.57 393.52 260.04 393.78
  A 1.15 1.15 0.0 0 1 260.87 394.21
  C 262.95 396.85 262.08 406.44 262.02 408.49
  A 0.78 0.78 0.0 0 1 261.59 409.17
  L 259.81 410.08
  A 0.38 0.38 0.0 0 0 259.99 410.80
  L 268.99 410.77
  Q 269.12 410.77 269.14 410.63
  L 269.16 410.32
  Q 269.20 409.83 268.72 409.81
  C 262.63 409.47 272.08 391.73 259.49 392.10
  Q 257.24 392.17 255.61 393.70
  Q 255.06 394.22 255.04 393.46"
/>
<path stroke="#7fc1e1" vector-effect="non-scaling-stroke" d="
  M 410.04 393.28
  L 409.99 392.07
  A 0.38 0.38 0.0 0 0 409.46 391.74
  L 403.34 394.46
  A 0.30 0.30 0.0 0 0 403.41 395.03
  C 406.44 395.62 405.60 397.53 405.69 399.71
  Q 405.87 404.13 405.43 408.62
  Q 405.39 409.10 404.93 409.28
  L 403.06 410.00
  A 0.42 0.42 0.0 0 0 403.21 410.81
  L 412.49 410.77
  A 0.25 0.24 2.5 0 0 412.74 410.55
  Q 412.76 410.39 412.77 410.22
  A 0.30 0.30 0.0 0 0 412.47 409.88
  Q 410.40 409.83 410.15 408.02
  Q 409.83 405.69 410.04 398.51
  C 410.18 393.62 416.57 391.45 416.94 396.76
  Q 417.35 402.62 416.92 408.56
  A 0.83 0.82 78.9 0 1 416.46 409.25
  L 414.82 410.08
  A 0.38 0.38 0.0 0 0 414.99 410.80
  L 423.82 410.79
  A 0.34 0.34 0.0 0 0 424.16 410.42
  L 424.13 410.12
  Q 424.11 409.82 423.81 409.81
  Q 421.42 409.70 421.45 407.25
  C 421.49 403.58 422.09 397.88 420.57 395.04
  C 418.89 391.88 413.65 390.95 410.76 393.58
  A 0.43 0.43 0.0 0 1 410.04 393.28"
/>
<path stroke="#7fc1e1" vector-effect="non-scaling-stroke" d="
  M 79.81 409.17
  L 77.57 409.95
  A 0.42 0.42 0.0 0 0 77.71 410.76
  L 87.74 410.83
  A 0.31 0.31 0.0 0 0 88.05 410.53
  Q 88.05 410.40 88.06 410.27
  Q 88.07 410.07 87.88 409.99
  L 85.43 409.04
  Q 84.80 408.79 84.81 408.11
  L 85.05 392.23
  A 0.38 0.38 0.0 0 0 84.53 391.87
  L 78.14 394.52
  A 0.34 0.34 0.0 0 0 78.17 395.16
  L 79.90 395.68
  A 0.99 0.97 9.3 0 1 80.59 396.62
  L 80.48 408.24
  A 0.99 0.98 -9.6 0 1 79.81 409.17"
/>
<path stroke="#7fc1e1" vector-effect="non-scaling-stroke" d="
  M 390.36 409.15
  L 388.15 409.93
  A 0.46 0.46 0.0 0 0 388.31 410.82
  Q 393.31 410.76 398.25 410.78
  Q 398.62 410.78 398.67 410.46
  Q 398.73 410.05 398.34 409.92
  L 395.95 409.12
  A 0.90 0.89 9.9 0 1 395.34 408.26
  L 395.55 392.23
  A 0.38 0.37 -10.9 0 0 395.03 391.88
  L 388.62 394.52
  A 0.34 0.33 -47.1 0 0 388.64 395.15
  L 390.44 395.73
  A 1.00 1.00 0.0 0 1 391.12 396.68
  L 391.01 408.24
  Q 391.00 408.92 390.36 409.15"
/>
<path stroke="#7fc1e1" vector-effect="non-scaling-stroke" d="
  M 430.82 409.16
  L 428.46 410.00
  A 0.39 0.39 0.0 0 0 428.59 410.76
  L 438.73 410.81
  A 0.31 0.30 2.0 0 0 439.04 410.53
  Q 439.05 410.36 439.06 410.20
  A 0.38 0.37 2.9 0 0 438.69 409.80
  C 436.87 409.77 435.97 408.87 435.91 407.01
  Q 435.69 399.59 436.18 392.25
  A 0.41 0.41 0.0 0 0 435.62 391.84
  L 429.04 394.55
  A 0.33 0.33 0.0 0 0 429.08 395.17
  L 430.69 395.58
  Q 431.60 395.81 431.59 396.75
  L 431.48 408.24
  A 0.98 0.97 -9.7 0 1 430.82 409.16"
/>
<path stroke="#7fc1e1" vector-effect="non-scaling-stroke" d="
  M 128.57 410.19
  C 131.04 412.75 134.71 410.80 135.44 407.68
  A 0.45 0.44 -17.0 0 0 134.68 407.28
  L 133.61 408.44
  A 0.74 0.74 0.0 0 1 132.33 407.93
  C 132.37 404.24 133.42 396.61 131.17 393.94
  C 128.39 390.64 121.93 391.58 119.85 395.45
  C 117.52 399.80 125.57 401.56 124.08 395.15
  A 1.82 1.82 0.0 0 1 127.59 394.18
  Q 128.44 396.84 128.15 399.72
  Q 128.10 400.29 127.53 400.31
  C 111.98 400.97 118.82 416.53 127.80 410.11
  Q 128.22 409.82 128.57 410.19"
/>
<path stroke="#7fc1e1" vector-effect="non-scaling-stroke" d="
  M 164.8968 411.6416
  A 9.88 9.07 93.5 0 0 174.5531 402.3337
  A 9.88 9.07 93.5 0 0 166.1032 391.9184
  A 9.88 9.07 93.5 0 0 156.4469 401.2263
  A 9.88 9.07 93.5 0 0 164.8968 411.6416"
/>
<path stroke="#7fc1e1" vector-effect="non-scaling-stroke" d="
  M 232.01 401.06
  L 242.52 401.01
  Q 243.14 401.00 243.11 400.38
  C 242.70 393.06 235.78 389.10 230.17 394.08
  C 225.38 398.33 225.59 407.70 231.44 410.63
  Q 237.95 413.89 242.92 407.96
  Q 242.98 407.89 242.96 407.80
  L 242.89 407.40
  A 0.37 0.37 0.0 0 0 242.26 407.21
  C 236.96 412.46 231.01 408.23 231.48 401.56
  Q 231.51 401.06 232.01 401.06"
/>
<path stroke="#7fc1e1" vector-effect="non-scaling-stroke" d="
  M 305.63 408.29
  A 0.86 0.86 0.0 0 1 304.08 407.78
  C 304.07 404.06 305.12 397.01 303.10 394.16
  C 300.59 390.62 292.82 391.56 291.35 395.83
  C 289.91 400.00 297.34 401.36 295.78 394.95
  Q 295.40 393.41 296.97 393.28
  C 300.51 392.97 300.04 397.41 299.96 399.64
  Q 299.94 400.15 299.43 400.20
  C 282.94 401.78 291.59 416.35 299.36 410.18
  Q 299.75 409.87 300.15 410.17
  Q 303.84 412.98 306.72 409.00
  Q 307.25 408.26 307.18 407.54
  A 0.45 0.45 0.0 0 0 306.38 407.31
  L 305.63 408.29"
/>
<path stroke="#7fc1e1" vector-effect="non-scaling-stroke" d="
  M 454.75 395.03
  L 454.70 397.50
  A 0.37 0.18 -70.7 0 0 454.71 397.59
  C 455.48 399.90 458.91 399.99 459.63 397.62
  C 460.81 393.76 455.57 391.96 452.84 391.98
  C 443.79 392.05 440.87 405.42 447.73 409.97
  C 451.95 412.78 457.02 411.74 459.89 407.51
  A 0.47 0.47 0.0 0 0 459.21 406.88
  C 458.20 407.68 457.39 408.68 456.14 409.09
  Q 450.48 410.96 449.03 405.26
  Q 447.33 398.59 451.20 393.74
  A 1.99 1.99 0.0 0 1 454.75 395.03"
/>
<path stroke="#7fc1e1" vector-effect="non-scaling-stroke" d="
  M 173.01 169.97
  L 327.33 169.71
  A 0.19 0.19 0.0 0 0 327.52 169.51
  L 327.52 169.43
  A 76.07 76.06 89.9 0 0 251.32 93.50
  L 248.74 93.50
  A 76.07 76.06 89.9 0 0 172.82 169.70
  L 172.82 169.78
  A 0.19 0.19 0.0 0 0 173.01 169.97"
/>
<path stroke="#7fc1e1" vector-effect="non-scaling-stroke" d="
  M 415.86 338.33
  L 418.32 325.10
  Q 418.43 324.51 417.83 324.51
  L 414.49 324.52
  Q 414.00 324.52 414.00 325.01
  L 414.00 352.77
  Q 414.00 353.31 414.53 353.27
  L 417.40 353.10
  A 1.05 1.03 8.0 0 0 418.32 352.42
  C 419.80 348.41 417.80 342.15 415.94 338.83
  A 0.77 0.73 37.3 0 1 415.86 338.33"
/>
<path stroke="#7fc1e1" vector-effect="non-scaling-stroke" d="
  M 56.91 347.36
  C 52.87 348.01 43.04 352.50 48.17 357.98
  Q 48.56 358.39 49.12 358.34
  C 51.93 358.06 56.12 349.76 57.21 347.80
  Q 57.51 347.27 56.91 347.36"
/>
<path stroke="#7fc1e1" vector-effect="non-scaling-stroke" d="
  M 133.25 357.71
  C 130.24 356.95 124.29 356.67 122.43 359.91
  A 2.36 2.36 0.0 0 0 123.36 363.17
  C 127.34 365.29 134.20 364.32 133.76 358.31
  Q 133.72 357.83 133.25 357.71"
/>
<path stroke="#7fc1e1" vector-effect="non-scaling-stroke" d="
  M 203.64 386.94
  L 203.74 406.98
  A 2.53 2.53 0.0 0 0 206.29 409.50
  L 207.05 409.49
  A 10.68 8.79 89.7 0 0 215.78 398.77
  L 215.76 395.03
  A 10.68 8.79 89.7 0 0 206.91 384.39
  L 206.15 384.40
  A 2.53 2.53 0.0 0 0 203.64 386.94"
/>
<path stroke="#7fc1e1" vector-effect="non-scaling-stroke" d="
  M 127.35 401.54
  Q 122.08 401.99 122.91 407.46
  Q 123.22 409.55 125.26 409.75
  A 2.47 2.47 0.0 0 0 127.99 407.32
  L 128.06 402.20
  Q 128.06 401.48 127.35 401.54"
/>
<path stroke="#7fc1e1" vector-effect="non-scaling-stroke" d="
  M 165.4947 410.4700
  A 8.75 4.31 90.1 0 0 169.8200 401.7275
  A 8.75 4.31 90.1 0 0 165.5253 392.9700
  A 8.75 4.31 90.1 0 0 161.2000 401.7125
  A 8.75 4.31 90.1 0 0 165.4947 410.4700"
/>
<path stroke="#7fc1e1" vector-effect="non-scaling-stroke" d="
  M 231.95 399.48
  L 238.61 399.52
  A 0.28 0.28 0.0 0 0 238.89 399.25
  L 238.89 399.08
  A 5.57 3.53 -89.6 0 0 235.40 393.48
  L 235.24 393.48
  A 5.57 3.53 -89.6 0 0 231.67 399.02
  L 231.67 399.19
  A 0.28 0.28 0.0 0 0 231.95 399.48"
/>
<path stroke="#7fc1e1" vector-effect="non-scaling-stroke" d="
  M 297.09 401.92
  Q 293.09 404.17 295.02 408.62
  A 1.97 1.97 0.0 0 0 297.48 409.69
  C 300.56 408.60 299.79 405.62 299.79 403.51
  Q 299.79 400.41 297.09 401.92"
/>
</g>
<path fill="#fdfdfd" d="
  M 0.00 0.00
  L 500.00 0.00
  L 500.00 500.00
  L 0.00 500.00
  L 0.00 0.00
  Z
  M 174.13 123.13
  Q 160.81 144.59 159.57 169.34
  Q 159.54 169.84 159.04 169.84
  Q 140.97 169.75 122.92 169.83
  C 118.20 169.85 113.40 170.84 114.05 176.52
  Q 114.46 180.12 117.48 181.90
  Q 119.38 183.02 123.24 183.02
  Q 250.41 183.00 377.58 183.01
  Q 381.25 183.01 383.11 181.73
  C 388.99 177.67 386.81 169.87 379.24 169.83
  Q 360.31 169.71 341.34 169.83
  Q 340.86 169.83 340.83 169.35
  C 339.18 140.60 326.07 115.31 303.32 98.11
  C 261.07 66.15 202.23 77.84 174.13 123.13
  Z
  M 288.65 300.29
  Q 290.63 303.38 293.24 306.00
  C 314.10 326.92 323.26 269.24 324.68 259.65
  C 326.11 250.04 327.20 239.51 328.81 230.81
  Q 331.98 213.79 336.87 197.11
  Q 337.04 196.55 336.45 196.54
  L 324.29 196.53
  Q 323.72 196.53 323.58 197.08
  C 316.63 223.41 312.31 253.00 308.40 272.63
  Q 307.35 277.90 304.15 288.13
  Q 304.00 288.62 303.58 288.91
  Q 301.18 290.61 298.26 289.86
  Q 297.72 289.72 297.43 289.24
  Q 285.46 268.99 278.31 246.56
  Q 275.76 238.57 271.78 231.25
  C 264.41 217.70 247.33 211.94 235.32 223.56
  Q 227.82 230.81 224.12 241.69
  Q 222.06 247.72 222.05 247.77
  Q 218.02 258.55 213.90 269.30
  Q 212.24 273.63 210.04 278.32
  Q 207.92 282.83 205.87 287.38
  Q 205.65 287.85 205.14 287.90
  Q 203.48 288.04 202.67 289.47
  Q 202.40 289.95 201.85 290.02
  Q 198.68 290.40 196.38 288.21
  Q 195.99 287.83 195.91 287.30
  C 195.34 283.82 193.88 280.07 193.21 277.18
  C 192.36 273.57 191.30 269.83 190.69 266.26
  Q 184.80 231.61 178.92 197.74
  Q 178.71 196.54 177.49 196.54
  L 164.03 196.55
  Q 163.41 196.55 163.59 197.14
  C 168.74 214.91 171.91 231.42 174.39 250.68
  C 176.04 263.47 182.09 303.65 194.72 309.56
  C 210.86 317.12 227.58 269.01 231.52 259.24
  Q 235.26 249.94 240.10 240.10
  Q 242.76 234.70 247.46 231.83
  C 252.86 228.53 257.46 234.69 259.90 238.99
  C 262.28 243.16 265.10 249.18 267.18 254.68
  Q 272.96 269.95 280.37 286.02
  C 282.78 291.24 285.65 295.59 288.65 300.29
  Z
  M 254.25 326.89
  L 269.51 326.89
  A 0.80 0.80 0.0 0 0 270.01 325.47
  L 264.90 321.39
  A 0.61 0.60 -51.3 0 0 264.05 321.49
  L 261.25 324.98
  A 0.97 0.96 -69.9 0 1 260.51 325.33
  L 254.31 325.32
  Q 253.85 325.32 253.71 324.88
  Q 252.68 321.68 255.13 320.41
  A 0.42 0.42 0.0 0 0 254.97 319.62
  L 247.53 319.01
  Q 247.03 318.96 247.03 319.47
  L 247.05 332.27
  Q 247.05 332.84 246.48 332.83
  L 239.94 332.77
  Q 239.37 332.77 239.37 332.19
  L 239.36 324.35
  A 0.67 0.67 0.0 0 1 239.71 323.76
  L 240.80 323.16
  A 0.51 0.51 0.0 0 0 240.59 322.20
  L 233.79 321.74
  Q 233.29 321.70 233.29 322.21
  L 233.30 332.25
  A 0.56 0.55 -90.0 0 1 232.75 332.81
  L 224.75 332.80
  A 0.60 0.60 0.0 0 0 224.15 333.51
  L 224.24 333.99
  Q 224.31 334.42 224.74 334.42
  L 275.00 334.42
  A 0.78 0.77 63.8 0 0 275.47 333.03
  L 269.75 328.58
  A 0.59 0.58 38.3 0 0 268.93 328.67
  L 265.84 332.48
  Q 265.58 332.81 265.15 332.81
  L 254.06 332.79
  Q 253.58 332.79 253.59 332.31
  L 253.62 327.50
  Q 253.63 326.89 254.25 326.89
  Z
  M 300.69 343.62
  Q 302.45 346.19 303.16 349.27
  C 303.71 351.67 306.43 352.18 307.77 350.20
  C 310.52 346.12 304.12 342.08 301.04 341.32
  A 1.84 1.84 0.0 0 1 301.63 337.70
  Q 305.19 338.01 308.53 337.77
  A 0.74 0.74 0.0 0 0 308.98 336.49
  L 304.66 332.39
  A 0.59 0.59 0.0 0 0 303.77 332.48
  L 301.13 336.30
  A 0.47 0.47 0.0 0 1 300.27 336.03
  L 300.27 327.04
  Q 300.27 326.72 300.57 326.60
  Q 304.23 325.21 308.07 325.79
  A 0.51 0.51 0.0 0 0 308.49 324.90
  L 302.33 319.45
  Q 301.88 319.05 301.38 319.38
  Q 293.85 324.46 285.29 327.56
  A 0.47 0.46 32.1 0 0 285.50 328.46
  L 293.43 327.67
  A 0.51 0.51 0.0 0 1 293.99 328.18
  L 293.99 335.74
  Q 293.99 336.25 293.48 336.26
  Q 289.67 336.33 285.87 336.29
  Q 285.49 336.29 285.36 336.47
  Q 285.16 336.73 285.31 337.26
  A 0.76 0.74 81.9 0 0 286.01 337.80
  L 292.49 337.88
  Q 293.04 337.89 292.93 338.43
  C 291.67 344.62 288.57 354.09 284.36 358.90
  Q 284.07 359.23 284.09 359.57
  A 0.48 0.48 0.0 0 0 284.87 359.92
  Q 289.78 356.12 293.39 351.07
  Q 293.99 350.22 293.99 351.27
  L 293.99 370.30
  Q 293.99 370.95 294.64 370.97
  Q 297.43 371.06 299.82 369.72
  Q 300.27 369.46 300.27 368.94
  L 300.27 343.75
  Q 300.27 343.02 300.69 343.62
  Z
  M 355.37 364.69
  L 355.37 325.50
  Q 355.37 324.88 355.99 324.88
  L 394.57 324.93
  A 0.74 0.73 63.5 0 0 395.01 323.61
  L 389.25 319.20
  Q 388.86 318.90 388.55 319.29
  L 385.63 322.89
  A 1.09 1.09 0.0 0 1 384.80 323.30
  Q 371.44 323.40 358.07 323.31
  C 354.83 323.29 352.36 321.79 349.33 320.78
  Q 348.71 320.58 348.71 321.22
  L 348.71 370.70
  Q 348.71 371.07 349.08 371.09
  C 351.17 371.22 356.42 370.85 355.29 367.83
  A 0.70 0.69 79.8 0 1 355.94 366.89
  L 396.73 366.90
  A 0.74 0.73 64.2 0 0 397.18 365.59
  L 391.19 360.80
  A 0.59 0.57 38.7 0 0 390.37 360.88
  L 387.13 364.85
  Q 386.80 365.26 386.27 365.26
  L 355.94 365.26
  Q 355.37 365.26 355.37 364.69
  Z
  M 430.53 328.60
  L 449.84 328.63
  Q 450.29 328.64 450.21 329.09
  L 449.64 332.28
  Q 449.56 332.76 449.09 332.61
  L 448.79 332.51
  A 0.67 0.65 27.0 0 0 448.05 332.74
  L 445.62 335.99
  Q 445.31 336.41 444.79 336.41
  L 427.02 336.42
  Q 426.51 336.42 426.51 336.93
  Q 426.50 337.39 426.80 337.68
  Q 427.11 337.97 427.80 337.97
  Q 440.28 337.99 453.10 337.98
  A 0.76 0.76 0.0 0 0 453.60 336.64
  L 450.57 334.05
  Q 450.07 333.62 450.65 333.30
  L 457.93 329.20
  Q 458.37 328.96 458.01 328.61
  L 453.50 324.30
  Q 453.03 323.84 452.58 324.32
  L 450.35 326.68
  A 1.22 1.21 -68.1 0 1 449.47 327.06
  L 443.23 327.03
  Q 442.67 327.03 442.67 326.48
  L 442.67 321.98
  Q 442.67 321.38 443.18 321.07
  L 444.19 320.45
  Q 445.26 319.79 444.01 319.69
  L 436.76 319.11
  Q 436.35 319.07 436.35 319.49
  L 436.36 326.61
  A 0.47 0.47 0.0 0 1 435.89 327.09
  L 430.36 327.07
  Q 429.85 327.07 429.71 326.58
  L 428.78 323.51
  A 0.57 0.57 0.0 0 0 427.66 323.70
  C 427.81 327.29 426.00 328.45 423.81 330.91
  C 419.83 335.37 430.26 338.95 429.95 329.19
  Q 429.93 328.60 430.53 328.60
  Z
  M 414.00 355.48
  A 1.13 1.13 0.0 0 1 416.17 355.03
  Q 416.97 356.88 416.86 359.17
  Q 416.83 359.73 417.40 359.75
  C 421.96 359.90 424.18 357.01 424.34 352.64
  Q 424.64 344.63 417.87 338.84
  Q 417.35 338.40 417.70 337.81
  L 424.47 326.44
  A 0.74 0.72 -80.7 0 1 424.93 326.10
  L 426.26 325.81
  A 0.48 0.48 0.0 0 0 426.49 324.99
  L 421.26 320.05
  A 0.49 0.49 0.0 0 0 420.49 320.17
  C 417.55 325.40 412.50 322.03 408.66 320.62
  Q 408.11 320.42 408.11 321.01
  L 408.10 370.31
  Q 408.10 370.96 408.76 370.98
  Q 411.28 371.05 413.42 369.80
  A 1.19 1.17 75.0 0 0 414.00 368.78
  L 414.00 355.48
  Z
  M 329.50 350.72
  L 329.50 323.49
  Q 329.50 323.08 329.84 322.85
  L 331.20 321.94
  A 0.46 0.46 0.0 0 0 330.99 321.10
  L 323.79 320.34
  Q 323.16 320.27 323.16 320.91
  L 323.16 351.95
  A 0.74 0.74 0.0 0 1 322.55 352.68
  L 305.37 355.89
  Q 304.96 355.96 304.96 356.37
  L 304.96 356.91
  A 0.61 0.60 -5.1 0 0 305.68 357.51
  L 322.66 354.25
  A 0.43 0.43 0.0 0 1 323.17 354.67
  L 323.15 370.01
  Q 323.15 370.71 323.85 370.72
  Q 326.66 370.74 328.99 369.24
  Q 329.50 368.92 329.50 368.31
  L 329.50 353.48
  Q 329.50 352.94 330.03 352.84
  L 337.11 351.45
  A 0.80 0.79 59.1 0 0 337.46 350.05
  L 333.28 346.65
  Q 332.52 346.03 332.08 346.90
  L 330.10 350.86
  Q 329.50 352.07 329.50 350.72
  Z
  M 124.61 329.17
  C 125.30 327.19 127.11 323.59 124.78 322.32
  Q 120.30 319.89 115.93 322.33
  A 0.43 0.43 0.0 0 0 115.98 323.11
  Q 121.28 325.23 118.84 330.87
  Q 118.64 331.32 118.18 331.45
  Q 111.46 333.40 106.21 329.06
  A 0.47 0.46 -71.3 0 0 105.45 329.44
  C 105.71 336.52 110.98 337.09 116.68 336.75
  Q 117.29 336.71 117.08 337.28
  Q 113.94 345.82 108.26 352.89
  C 106.64 354.90 104.49 359.87 108.28 361.02
  C 113.54 362.63 121.15 339.94 122.24 336.37
  Q 122.39 335.89 122.88 335.79
  C 125.60 335.21 130.75 334.02 132.58 331.84
  C 134.20 329.91 132.77 327.78 130.49 327.59
  A 1.00 0.85 -49.5 0 0 130.05 327.66
  L 125.16 329.68
  Q 124.31 330.03 124.61 329.17
  Z
  M 183.06 343.81
  C 176.91 348.47 169.27 357.92 176.09 364.27
  C 182.06 369.83 195.95 368.69 203.48 366.89
  C 204.97 366.54 206.25 365.67 206.71 364.28
  A 2.42 2.42 0.0 0 0 205.65 361.43
  C 203.43 360.10 201.17 360.00 198.46 360.67
  C 194.17 361.73 178.49 364.09 177.56 357.56
  C 176.29 348.70 196.43 340.93 203.14 338.91
  C 204.88 338.38 206.12 337.05 205.20 335.24
  Q 202.54 329.96 196.20 330.32
  Q 195.39 330.36 195.93 330.98
  L 197.67 332.97
  A 1.21 1.21 0.0 0 1 197.37 334.82
  L 188.01 340.30
  A 0.71 0.71 0.0 0 1 187.12 340.15
  C 183.72 336.19 184.05 331.40 184.55 326.47
  A 1.22 1.22 0.0 0 0 184.23 325.53
  Q 179.67 320.60 173.33 323.14
  A 0.56 0.56 0.0 0 0 173.25 324.14
  L 177.01 326.39
  Q 177.54 326.71 177.63 327.33
  C 178.43 332.81 178.66 339.13 183.09 343.05
  Q 183.54 343.45 183.06 343.81
  Z
  M 64.86 343.31
  Q 69.08 335.63 75.89 330.19
  A 1.76 1.76 0.0 0 0 76.20 327.77
  Q 73.91 324.67 70.24 323.45
  A 1.32 1.31 -51.0 0 0 69.15 323.57
  Q 66.15 325.35 62.80 326.23
  C 58.90 327.25 55.61 328.65 53.63 324.74
  A 0.51 0.51 0.0 0 0 52.68 324.86
  Q 51.44 330.33 56.40 332.89
  Q 58.14 333.79 59.71 332.66
  Q 63.07 330.25 67.08 328.69
  A 0.62 0.62 0.0 0 1 67.84 329.58
  L 59.45 343.90
  A 1.15 1.15 0.0 0 1 58.67 344.43
  C 50.03 345.95 40.12 352.01 45.66 362.04
  C 49.21 368.45 55.47 362.44 57.40 358.30
  Q 59.90 352.92 62.43 347.50
  Q 62.66 347.00 63.21 347.02
  Q 71.97 347.38 79.04 352.45
  A 0.66 0.66 0.0 0 1 79.25 353.27
  Q 73.83 364.69 61.73 368.61
  A 0.53 0.52 33.5 0 0 61.94 369.63
  Q 76.05 368.52 83.96 357.11
  Q 84.24 356.70 84.61 357.03
  C 86.33 358.59 88.95 361.78 91.55 360.86
  Q 93.33 360.22 93.24 357.99
  C 93.08 354.12 89.75 352.22 86.91 350.28
  Q 86.42 349.95 86.52 349.36
  L 87.76 342.05
  A 0.87 0.83 34.5 0 0 87.63 341.43
  Q 84.20 336.39 78.64 338.86
  A 0.55 0.55 0.0 0 0 78.63 339.86
  Q 82.94 341.85 80.96 346.62
  Q 80.78 347.05 80.35 346.88
  Q 73.01 344.10 65.17 343.84
  Q 64.58 343.82 64.86 343.31
  Z
  M 313.55 330.35
  C 314.27 331.68 314.48 334.31 316.36 334.96
  C 320.05 336.25 321.68 331.65 319.51 328.95
  Q 316.48 325.20 310.41 325.09
  Q 309.80 325.08 310.20 325.54
  Q 312.15 327.80 313.55 330.35
  Z
  M 369.39 333.11
  L 371.32 330.13
  Q 371.62 329.67 372.14 329.51
  L 373.43 329.11
  A 0.46 0.46 0.0 0 0 373.44 328.24
  L 366.29 325.84
  A 0.64 0.63 -73.5 0 0 365.47 326.29
  Q 363.34 334.67 358.04 341.48
  A 0.40 0.40 0.0 0 0 358.53 342.08
  Q 363.43 339.72 367.13 335.78
  Q 367.55 335.33 368.16 335.32
  L 370.90 335.29
  Q 371.53 335.28 371.51 335.90
  L 371.29 343.00
  Q 371.27 343.53 370.75 343.53
  L 357.92 343.52
  Q 357.36 343.52 357.44 344.07
  L 357.50 344.50
  Q 357.60 345.15 358.25 345.14
  L 370.49 345.11
  Q 370.90 345.11 370.87 345.51
  C 370.21 353.83 364.32 358.64 357.21 361.30
  A 0.43 0.43 0.0 0 0 357.43 362.12
  C 364.61 360.89 372.57 357.35 376.00 350.37
  Q 376.23 349.89 376.66 350.20
  Q 382.17 354.19 385.83 359.96
  C 388.33 363.90 393.12 358.93 390.26 354.81
  C 387.64 351.03 381.62 349.00 377.23 348.58
  A 0.46 0.46 0.0 0 1 376.83 348.01
  L 377.39 345.74
  Q 377.54 345.15 378.15 345.15
  L 394.29 345.11
  A 0.65 0.65 0.0 0 0 394.70 343.96
  L 389.13 339.42
  Q 388.69 339.06 388.35 339.51
  L 385.53 343.13
  A 1.07 1.04 -70.1 0 1 384.71 343.53
  L 378.27 343.52
  Q 377.78 343.52 377.81 343.02
  L 378.28 335.76
  Q 378.31 335.33 378.74 335.33
  L 391.32 335.30
  A 0.67 0.67 0.0 0 0 391.73 334.11
  L 386.35 329.82
  Q 385.90 329.46 385.53 329.91
  L 382.77 333.36
  A 1.04 1.03 19.2 0 1 381.96 333.75
  L 369.73 333.75
  Q 368.98 333.75 369.39 333.11
  Z
  M 133.08 353.52
  C 128.48 353.22 122.40 354.59 120.16 359.06
  C 114.37 370.64 140.72 374.25 139.22 360.47
  A 0.39 0.39 0.0 0 1 139.79 360.09
  Q 143.57 362.19 146.91 365.87
  Q 148.15 367.25 150.30 366.45
  Q 150.81 366.26 151.01 365.74
  C 153.40 359.62 143.42 355.62 139.20 354.42
  Q 138.72 354.28 138.60 353.80
  C 136.83 346.46 134.34 336.64 147.16 341.14
  C 151.23 342.57 151.51 338.40 150.37 335.90
  C 148.16 331.11 140.85 330.40 136.46 331.94
  A 0.52 0.52 0.0 0 0 136.59 332.95
  Q 139.43 333.22 141.77 334.69
  A 1.06 1.06 0.0 0 1 141.63 336.56
  C 133.67 340.01 133.07 344.97 133.59 353.01
  Q 133.63 353.56 133.08 353.52
  Z
  M 252.62 346.77
  L 252.63 339.16
  Q 252.63 338.60 253.09 338.29
  L 254.41 337.40
  Q 255.29 336.81 254.24 336.71
  L 247.29 336.02
  Q 246.79 335.97 246.80 336.46
  L 246.82 346.96
  Q 246.82 347.49 246.29 347.49
  L 236.16 347.49
  Q 235.40 347.49 235.65 348.21
  L 235.79 348.61
  A 0.62 0.61 -9.3 0 0 236.37 349.02
  L 243.75 349.01
  Q 244.32 349.01 244.09 349.54
  Q 241.02 356.42 235.21 361.22
  A 0.43 0.42 -76.0 0 0 235.64 361.94
  Q 241.59 359.43 246.31 355.02
  Q 246.84 354.53 246.84 355.25
  L 246.79 363.16
  Q 246.79 363.84 247.45 363.69
  L 252.02 362.65
  Q 252.63 362.51 252.63 361.87
  L 252.62 352.27
  Q 252.62 351.63 253.11 352.05
  Q 256.83 355.26 259.04 359.68
  A 2.24 2.24 0.0 0 0 262.38 360.49
  C 263.96 359.32 264.06 357.50 263.03 355.88
  C 260.89 352.51 256.74 351.39 253.09 350.71
  A 0.85 0.85 0.0 0 1 253.24 349.03
  L 264.55 349.02
  A 0.59 0.59 0.0 0 0 264.92 347.97
  L 260.44 344.34
  A 0.63 0.63 0.0 0 0 259.47 344.56
  Q 257.63 348.56 253.07 347.36
  Q 252.62 347.24 252.62 346.77
  Z
  M 265.80 367.27
  L 265.78 370.41
  Q 265.78 371.09 266.45 370.95
  L 271.13 369.99
  A 1.08 1.07 -5.6 0 0 272.00 368.94
  L 272.00 339.97
  Q 272.00 339.58 272.34 339.41
  L 273.74 338.70
  A 0.46 0.45 -55.6 0 0 273.58 337.84
  L 266.36 337.16
  A 0.50 0.49 2.7 0 0 265.81 337.65
  L 265.82 364.71
  Q 265.82 365.06 265.47 365.06
  L 234.73 365.07
  Q 234.15 365.07 234.15 364.49
  L 234.19 339.83
  A 0.86 0.84 -14.0 0 1 234.65 339.08
  L 235.69 338.53
  A 0.42 0.42 0.0 0 0 235.53 337.74
  L 228.75 337.10
  Q 228.03 337.03 228.03 337.75
  L 228.04 370.43
  Q 228.04 371.12 228.71 370.97
  L 233.37 369.94
  Q 234.19 369.76 234.20 368.91
  L 234.21 367.27
  A 0.53 0.52 90.0 0 1 234.73 366.74
  L 265.27 366.75
  Q 265.80 366.75 265.80 367.27
  Z
  M 263.87 340.40
  A 0.30 0.30 0.0 0 0 263.96 339.82
  L 257.74 337.16
  A 0.30 0.30 0.0 0 0 257.34 337.34
  L 254.25 345.89
  A 0.30 0.30 0.0 0 0 254.72 346.23
  L 261.97 340.63
  A 0.30 0.30 0.0 0 1 262.13 340.57
  L 263.87 340.40
  Z
  M 237.81 338.02
  C 238.45 340.31 239.62 342.11 239.93 344.45
  A 2.15 2.14 65.7 0 0 243.46 345.79
  C 247.55 342.25 241.40 338.30 238.23 337.58
  Q 237.65 337.46 237.81 338.02
  Z
  M 318.19 342.04
  C 316.21 339.86 312.34 338.65 309.44 338.60
  A 0.43 0.42 -22.8 0 0 309.14 339.33
  Q 312.47 342.50 313.85 346.90
  A 2.55 2.54 64.9 0 0 317.65 348.28
  Q 321.57 345.78 318.19 342.04
  Z
  M 437.92 346.47
  L 440.59 346.41
  Q 441.34 346.40 441.33 347.15
  Q 441.21 356.20 441.18 365.24
  C 441.15 371.38 450.25 369.65 454.74 369.14
  C 457.90 368.78 460.33 365.67 457.23 363.42
  Q 456.84 363.14 456.83 362.66
  L 456.73 356.07
  A 0.37 0.37 0.0 0 0 456.00 355.97
  L 453.92 362.87
  A 0.98 0.98 0.0 0 1 452.98 363.57
  L 447.80 363.57
  Q 447.28 363.57 447.28 363.05
  L 447.27 347.11
  Q 447.27 346.49 447.89 346.48
  L 457.51 346.37
  A 0.59 0.59 0.0 0 0 457.90 345.34
  L 452.85 340.85
  Q 452.31 340.38 451.90 340.95
  L 449.41 344.37
  Q 449.09 344.82 448.53 344.82
  L 424.74 344.82
  Q 424.27 344.82 424.17 345.28
  Q 424.08 345.71 424.34 346.03
  Q 424.60 346.36 425.26 346.39
  Q 427.66 346.50 430.06 346.38
  Q 430.55 346.36 430.59 346.85
  Q 431.39 357.47 424.61 365.09
  C 423.11 366.77 420.72 368.11 419.01 369.35
  Q 416.65 371.06 419.46 370.28
  Q 436.81 365.42 437.20 347.18
  Q 437.22 346.48 437.92 346.47
  Z
  M 313.85 409.13
  L 311.46 409.99
  A 0.40 0.40 0.0 0 0 311.59 410.76
  L 321.77 410.83
  Q 321.93 410.83 321.97 410.68
  L 322.05 410.34
  Q 322.17 409.82 321.64 409.80
  C 319.90 409.73 318.91 408.81 318.89 406.99
  Q 318.73 394.77 319.09 382.49
  Q 319.11 381.94 318.60 382.14
  L 312.05 384.82
  A 0.31 0.31 0.0 0 0 312.07 385.40
  L 313.91 386.02
  A 0.98 0.97 -81.0 0 1 314.58 386.95
  L 314.52 408.18
  A 1.01 1.01 0.0 0 1 313.85 409.13
  Z
  M 375.44 409.10
  L 373.05 409.97
  A 0.43 0.43 0.0 0 0 373.20 410.81
  L 383.48 410.80
  Q 383.69 410.80 383.69 410.60
  Q 383.70 410.46 383.72 410.32
  A 0.31 0.31 0.0 0 0 383.52 409.98
  L 381.03 409.11
  Q 380.30 408.85 380.31 408.08
  L 380.51 382.25
  A 0.18 0.18 0.0 0 0 380.27 382.08
  L 373.55 384.81
  A 0.30 0.29 44.3 0 0 373.56 385.36
  L 375.53 386.11
  A 0.93 0.92 10.7 0 1 376.12 386.97
  L 376.03 408.26
  A 0.89 0.89 0.0 0 1 375.44 409.10
  Z
  M 363.71 384.25
  C 342.81 374.35 335.18 408.57 354.76 411.21
  Q 364.18 412.47 367.60 403.96
  A 0.52 0.50 20.8 0 0 367.29 403.29
  Q 367.07 403.21 366.83 403.28
  Q 366.52 403.37 366.26 403.86
  C 362.18 411.59 351.37 410.32 349.65 401.42
  C 348.44 395.17 348.92 383.98 357.68 384.05
  C 362.42 384.09 365.14 388.13 365.65 392.50
  A 0.53 0.52 86.9 0 0 366.17 392.97
  L 366.68 392.97
  A 0.39 0.39 0.0 0 0 367.07 392.57
  L 366.71 383.44
  Q 366.68 382.82 366.17 383.17
  L 364.66 384.18
  Q 364.21 384.49 363.71 384.25
  Z
  M 85.61 385.69
  A 3.03 3.03 0.0 0 0 82.58 382.66
  A 3.03 3.03 0.0 0 0 79.55 385.69
  A 3.03 3.03 0.0 0 0 82.58 388.72
  A 3.03 3.03 0.0 0 0 85.61 385.69
  Z
  M 396.11 385.68
  A 3.03 3.03 0.0 0 0 393.08 382.65
  A 3.03 3.03 0.0 0 0 390.05 385.68
  A 3.03 3.03 0.0 0 0 393.08 388.71
  A 3.03 3.03 0.0 0 0 396.11 385.68
  Z
  M 436.61 385.69
  A 3.03 3.03 0.0 0 0 433.58 382.66
  A 3.03 3.03 0.0 0 0 430.55 385.69
  A 3.03 3.03 0.0 0 0 433.58 388.72
  A 3.03 3.03 0.0 0 0 436.61 385.69
  Z
  M 44.73 388.08
  A 0.26 0.25 -57.5 0 1 45.22 387.97
  L 54.59 410.27
  A 0.72 0.72 0.0 0 0 55.93 410.24
  L 64.40 387.62
  A 0.12 0.12 0.0 0 1 64.63 387.66
  Q 64.77 397.09 64.56 406.61
  C 64.52 408.70 63.78 409.76 61.63 409.76
  Q 61.37 409.75 61.29 410.00
  Q 61.24 410.15 61.19 410.30
  A 0.36 0.35 10.1 0 0 61.52 410.77
  L 72.56 410.84
  A 0.40 0.40 0.0 0 0 72.97 410.50
  Q 72.99 410.37 73.01 410.24
  Q 73.09 409.71 72.56 409.69
  C 69.30 409.53 69.82 407.57 69.78 405.22
  Q 69.60 395.43 69.82 385.60
  A 0.91 0.90 79.0 0 1 70.37 384.78
  Q 71.22 384.41 72.52 384.27
  Q 73.01 384.22 72.89 383.55
  Q 72.80 383.02 72.27 383.04
  L 64.78 383.29
  A 0.72 0.70 -80.2 0 0 64.13 383.76
  L 57.27 402.48
  Q 56.95 403.37 56.59 402.50
  L 48.93 383.86
  A 0.96 0.94 79.1 0 0 48.07 383.27
  L 40.02 383.04
  A 0.49 0.49 0.0 0 0 39.52 383.48
  Q 39.49 383.65 39.46 383.81
  A 0.35 0.35 0.0 0 0 39.83 384.22
  Q 42.95 383.98 43.18 386.74
  Q 43.56 391.22 43.07 408.28
  A 0.80 0.78 -8.2 0 1 42.50 409.02
  L 39.66 409.85
  Q 39.58 409.88 39.57 409.96
  Q 39.55 410.09 39.53 410.21
  A 0.49 0.48 5.6 0 0 40.00 410.78
  L 48.03 410.80
  Q 48.35 410.80 48.44 410.49
  Q 48.48 410.36 48.52 410.24
  A 0.39 0.38 9.5 0 0 48.16 409.74
  Q 44.75 409.67 44.81 405.76
  Q 44.97 396.81 44.73 388.08
  Z
  M 198.60 385.58
  L 198.65 408.08
  A 0.93 0.93 0.0 0 1 198.03 408.96
  L 195.43 409.86
  A 0.35 0.34 -87.3 0 0 195.24 410.04
  Q 195.20 410.16 195.15 410.27
  A 0.31 0.31 0.0 0 0 195.42 410.70
  C 204.90 411.09 218.27 413.10 220.83 400.25
  C 222.81 390.32 217.88 383.72 208.19 383.13
  Q 201.85 382.75 195.55 383.19
  A 0.45 0.45 0.0 0 0 195.48 384.07
  L 197.87 384.66
  A 0.94 0.94 0.0 0 1 198.60 385.58
  Z
  M 142.58 395.05
  Q 142.38 400.53 142.42 406.00
  Q 142.47 412.42 148.95 411.38
  Q 150.94 411.06 151.96 409.55
  A 0.40 0.40 0.0 0 0 151.50 408.95
  L 149.18 409.73
  A 1.64 1.64 0.0 0 1 147.02 408.16
  L 147.15 395.03
  Q 147.16 394.48 147.72 394.47
  L 151.16 394.45
  Q 151.61 394.45 151.79 394.03
  Q 152.32 392.81 151.24 392.87
  Q 149.56 392.97 147.79 392.85
  Q 147.26 392.81 147.28 392.27
  L 147.48 388.06
  A 0.72 0.72 0.0 0 0 146.07 387.81
  Q 144.70 392.07 140.41 393.24
  A 0.48 0.48 0.0 0 0 140.45 394.18
  L 142.09 394.45
  Q 142.60 394.53 142.58 395.05
  Z
  M 281.51 394.46
  L 285.00 394.46
  A 0.79 0.78 45.1 0 0 285.00 392.89
  L 281.57 392.88
  Q 281.01 392.87 281.03 392.32
  L 281.23 388.02
  A 0.52 0.51 80.8 0 0 280.53 387.51
  C 280.07 387.68 279.66 388.06 279.47 388.55
  Q 278.07 392.20 274.18 393.20
  A 0.51 0.50 41.0 0 0 274.25 394.19
  L 275.85 394.37
  A 0.48 0.48 0.0 0 1 276.27 394.85
  Q 276.25 399.78 276.23 404.72
  C 276.21 409.42 277.28 412.37 282.70 411.34
  Q 284.74 410.95 285.71 409.61
  A 0.42 0.42 0.0 0 0 285.24 408.96
  L 282.77 409.76
  A 1.10 1.07 -34.2 0 1 281.76 409.58
  Q 280.89 408.89 280.84 407.25
  Q 280.66 401.10 281.00 394.94
  Q 281.03 394.46 281.51 394.46
  Z
  M 99.48 393.27
  L 99.53 392.15
  Q 99.55 391.48 98.94 391.76
  L 93.02 394.40
  A 0.35 0.34 -49.5 0 0 93.07 395.05
  Q 95.09 395.57 95.22 397.21
  Q 95.52 400.99 94.96 408.50
  Q 94.92 409.05 94.41 409.25
  L 92.70 409.96
  A 0.43 0.43 0.0 0 0 92.86 410.78
  L 101.74 410.81
  Q 102.18 410.82 102.16 410.38
  Q 102.14 409.75 101.51 409.69
  Q 99.79 409.52 99.68 408.01
  Q 99.30 403.03 99.66 398.05
  C 100.01 393.18 106.36 391.54 106.46 397.51
  Q 106.57 404.59 106.46 407.77
  C 106.41 409.13 105.65 409.75 104.41 409.97
  A 0.42 0.42 0.0 0 0 104.48 410.81
  L 113.49 410.78
  A 0.24 0.24 0.0 0 0 113.73 410.55
  Q 113.74 410.39 113.75 410.23
  A 0.31 0.31 0.0 0 0 113.45 409.90
  C 106.94 409.73 116.83 390.39 103.18 392.20
  C 101.91 392.37 101.10 392.90 100.03 393.58
  Q 99.46 393.95 99.48 393.27
  Z
  M 255.04 393.46
  L 255.00 392.15
  Q 254.98 391.52 254.41 391.77
  L 248.49 394.40
  A 0.35 0.35 0.0 0 0 248.52 395.06
  L 249.72 395.46
  A 1.48 1.47 9.6 0 1 250.74 396.89
  L 250.59 408.40
  Q 250.58 409.10 249.91 409.33
  L 248.17 409.92
  A 0.45 0.45 0.0 0 0 248.31 410.79
  L 257.49 410.80
  A 0.25 0.25 0.0 0 0 257.74 410.55
  Q 257.74 410.42 257.75 410.28
  A 0.24 0.23 15.3 0 0 257.61 410.04
  L 255.73 409.28
  A 0.74 0.74 0.0 0 1 255.27 408.66
  Q 254.66 401.66 255.11 397.64
  Q 255.57 393.52 260.04 393.78
  A 1.15 1.15 0.0 0 1 260.87 394.21
  C 262.95 396.85 262.08 406.44 262.02 408.49
  A 0.78 0.78 0.0 0 1 261.59 409.17
  L 259.81 410.08
  A 0.38 0.38 0.0 0 0 259.99 410.80
  L 268.99 410.77
  Q 269.12 410.77 269.14 410.63
  L 269.16 410.32
  Q 269.20 409.83 268.72 409.81
  C 262.63 409.47 272.08 391.73 259.49 392.10
  Q 257.24 392.17 255.61 393.70
  Q 255.06 394.22 255.04 393.46
  Z
  M 410.04 393.28
  L 409.99 392.07
  A 0.38 0.38 0.0 0 0 409.46 391.74
  L 403.34 394.46
  A 0.30 0.30 0.0 0 0 403.41 395.03
  C 406.44 395.62 405.60 397.53 405.69 399.71
  Q 405.87 404.13 405.43 408.62
  Q 405.39 409.10 404.93 409.28
  L 403.06 410.00
  A 0.42 0.42 0.0 0 0 403.21 410.81
  L 412.49 410.77
  A 0.25 0.24 2.5 0 0 412.74 410.55
  Q 412.76 410.39 412.77 410.22
  A 0.30 0.30 0.0 0 0 412.47 409.88
  Q 410.40 409.83 410.15 408.02
  Q 409.83 405.69 410.04 398.51
  C 410.18 393.62 416.57 391.45 416.94 396.76
  Q 417.35 402.62 416.92 408.56
  A 0.83 0.82 78.9 0 1 416.46 409.25
  L 414.82 410.08
  A 0.38 0.38 0.0 0 0 414.99 410.80
  L 423.82 410.79
  A 0.34 0.34 0.0 0 0 424.16 410.42
  L 424.13 410.12
  Q 424.11 409.82 423.81 409.81
  Q 421.42 409.70 421.45 407.25
  C 421.49 403.58 422.09 397.88 420.57 395.04
  C 418.89 391.88 413.65 390.95 410.76 393.58
  A 0.43 0.43 0.0 0 1 410.04 393.28
  Z
  M 79.81 409.17
  L 77.57 409.95
  A 0.42 0.42 0.0 0 0 77.71 410.76
  L 87.74 410.83
  A 0.31 0.31 0.0 0 0 88.05 410.53
  Q 88.05 410.40 88.06 410.27
  Q 88.07 410.07 87.88 409.99
  L 85.43 409.04
  Q 84.80 408.79 84.81 408.11
  L 85.05 392.23
  A 0.38 0.38 0.0 0 0 84.53 391.87
  L 78.14 394.52
  A 0.34 0.34 0.0 0 0 78.17 395.16
  L 79.90 395.68
  A 0.99 0.97 9.3 0 1 80.59 396.62
  L 80.48 408.24
  A 0.99 0.98 -9.6 0 1 79.81 409.17
  Z
  M 390.36 409.15
  L 388.15 409.93
  A 0.46 0.46 0.0 0 0 388.31 410.82
  Q 393.31 410.76 398.25 410.78
  Q 398.62 410.78 398.67 410.46
  Q 398.73 410.05 398.34 409.92
  L 395.95 409.12
  A 0.90 0.89 9.9 0 1 395.34 408.26
  L 395.55 392.23
  A 0.38 0.37 -10.9 0 0 395.03 391.88
  L 388.62 394.52
  A 0.34 0.33 -47.1 0 0 388.64 395.15
  L 390.44 395.73
  A 1.00 1.00 0.0 0 1 391.12 396.68
  L 391.01 408.24
  Q 391.00 408.92 390.36 409.15
  Z
  M 430.82 409.16
  L 428.46 410.00
  A 0.39 0.39 0.0 0 0 428.59 410.76
  L 438.73 410.81
  A 0.31 0.30 2.0 0 0 439.04 410.53
  Q 439.05 410.36 439.06 410.20
  A 0.38 0.37 2.9 0 0 438.69 409.80
  C 436.87 409.77 435.97 408.87 435.91 407.01
  Q 435.69 399.59 436.18 392.25
  A 0.41 0.41 0.0 0 0 435.62 391.84
  L 429.04 394.55
  A 0.33 0.33 0.0 0 0 429.08 395.17
  L 430.69 395.58
  Q 431.60 395.81 431.59 396.75
  L 431.48 408.24
  A 0.98 0.97 -9.7 0 1 430.82 409.16
  Z
  M 128.57 410.19
  C 131.04 412.75 134.71 410.80 135.44 407.68
  A 0.45 0.44 -17.0 0 0 134.68 407.28
  L 133.61 408.44
  A 0.74 0.74 0.0 0 1 132.33 407.93
  C 132.37 404.24 133.42 396.61 131.17 393.94
  C 128.39 390.64 121.93 391.58 119.85 395.45
  C 117.52 399.80 125.57 401.56 124.08 395.15
  A 1.82 1.82 0.0 0 1 127.59 394.18
  Q 128.44 396.84 128.15 399.72
  Q 128.10 400.29 127.53 400.31
  C 111.98 400.97 118.82 416.53 127.80 410.11
  Q 128.22 409.82 128.57 410.19
  Z
  M 164.8968 411.6416
  A 9.88 9.07 93.5 0 0 174.5531 402.3337
  A 9.88 9.07 93.5 0 0 166.1032 391.9184
  A 9.88 9.07 93.5 0 0 156.4469 401.2263
  A 9.88 9.07 93.5 0 0 164.8968 411.6416
  Z
  M 232.01 401.06
  L 242.52 401.01
  Q 243.14 401.00 243.11 400.38
  C 242.70 393.06 235.78 389.10 230.17 394.08
  C 225.38 398.33 225.59 407.70 231.44 410.63
  Q 237.95 413.89 242.92 407.96
  Q 242.98 407.89 242.96 407.80
  L 242.89 407.40
  A 0.37 0.37 0.0 0 0 242.26 407.21
  C 236.96 412.46 231.01 408.23 231.48 401.56
  Q 231.51 401.06 232.01 401.06
  Z
  M 305.63 408.29
  A 0.86 0.86 0.0 0 1 304.08 407.78
  C 304.07 404.06 305.12 397.01 303.10 394.16
  C 300.59 390.62 292.82 391.56 291.35 395.83
  C 289.91 400.00 297.34 401.36 295.78 394.95
  Q 295.40 393.41 296.97 393.28
  C 300.51 392.97 300.04 397.41 299.96 399.64
  Q 299.94 400.15 299.43 400.20
  C 282.94 401.78 291.59 416.35 299.36 410.18
  Q 299.75 409.87 300.15 410.17
  Q 303.84 412.98 306.72 409.00
  Q 307.25 408.26 307.18 407.54
  A 0.45 0.45 0.0 0 0 306.38 407.31
  L 305.63 408.29
  Z
  M 454.75 395.03
  L 454.70 397.50
  A 0.37 0.18 -70.7 0 0 454.71 397.59
  C 455.48 399.90 458.91 399.99 459.63 397.62
  C 460.81 393.76 455.57 391.96 452.84 391.98
  C 443.79 392.05 440.87 405.42 447.73 409.97
  C 451.95 412.78 457.02 411.74 459.89 407.51
  A 0.47 0.47 0.0 0 0 459.21 406.88
  C 458.20 407.68 457.39 408.68 456.14 409.09
  Q 450.48 410.96 449.03 405.26
  Q 447.33 398.59 451.20 393.74
  A 1.99 1.99 0.0 0 1 454.75 395.03
  Z"
/>
<path fill="#0185c4" d="
  M 174.13 123.13
  C 202.23 77.84 261.07 66.15 303.32 98.11
  C 326.07 115.31 339.18 140.60 340.83 169.35
  Q 340.86 169.83 341.34 169.83
  Q 360.31 169.71 379.24 169.83
  C 386.81 169.87 388.99 177.67 383.11 181.73
  Q 381.25 183.01 377.58 183.01
  Q 250.41 183.00 123.24 183.02
  Q 119.38 183.02 117.48 181.90
  Q 114.46 180.12 114.05 176.52
  C 113.40 170.84 118.20 169.85 122.92 169.83
  Q 140.97 169.75 159.04 169.84
  Q 159.54 169.84 159.57 169.34
  Q 160.81 144.59 174.13 123.13
  Z
  M 173.01 169.97
  L 327.33 169.71
  A 0.19 0.19 0.0 0 0 327.52 169.51
  L 327.52 169.43
  A 76.07 76.06 89.9 0 0 251.32 93.50
  L 248.74 93.50
  A 76.07 76.06 89.9 0 0 172.82 169.70
  L 172.82 169.78
  A 0.19 0.19 0.0 0 0 173.01 169.97
  Z"
/>
<path fill="#fdfdfd" d="
  M 173.01 169.97
  A 0.19 0.19 0.0 0 1 172.82 169.78
  L 172.82 169.70
  A 76.07 76.06 89.9 0 1 248.74 93.50
  L 251.32 93.50
  A 76.07 76.06 89.9 0 1 327.52 169.43
  L 327.52 169.51
  A 0.19 0.19 0.0 0 1 327.33 169.71
  L 173.01 169.97
  Z"
/>
<path fill="#0185c4" d="
  M 288.65 300.29
  C 285.65 295.59 282.78 291.24 280.37 286.02
  Q 272.96 269.95 267.18 254.68
  C 265.10 249.18 262.28 243.16 259.90 238.99
  C 257.46 234.69 252.86 228.53 247.46 231.83
  Q 242.76 234.70 240.10 240.10
  Q 235.26 249.94 231.52 259.24
  C 227.58 269.01 210.86 317.12 194.72 309.56
  C 182.09 303.65 176.04 263.47 174.39 250.68
  C 171.91 231.42 168.74 214.91 163.59 197.14
  Q 163.41 196.55 164.03 196.55
  L 177.49 196.54
  Q 178.71 196.54 178.92 197.74
  Q 184.80 231.61 190.69 266.26
  C 191.30 269.83 192.36 273.57 193.21 277.18
  C 193.88 280.07 195.34 283.82 195.91 287.30
  Q 195.99 287.83 196.38 288.21
  Q 198.68 290.40 201.85 290.02
  Q 202.40 289.95 202.67 289.47
  Q 203.48 288.04 205.14 287.90
  Q 205.65 287.85 205.87 287.38
  Q 207.92 282.83 210.04 278.32
  Q 212.24 273.63 213.90 269.30
  Q 218.02 258.55 222.05 247.77
  Q 222.06 247.72 224.12 241.69
  Q 227.82 230.81 235.32 223.56
  C 247.33 211.94 264.41 217.70 271.78 231.25
  Q 275.76 238.57 278.31 246.56
  Q 285.46 268.99 297.43 289.24
  Q 297.72 289.72 298.26 289.86
  Q 301.18 290.61 303.58 288.91
  Q 304.00 288.62 304.15 288.13
  Q 307.35 277.90 308.40 272.63
  C 312.31 253.00 316.63 223.41 323.58 197.08
  Q 323.72 196.53 324.29 196.53
  L 336.45 196.54
  Q 337.04 196.55 336.87 197.11
  Q 331.98 213.79 328.81 230.81
  C 327.20 239.51 326.11 250.04 324.68 259.65
  C 323.26 269.24 314.10 326.92 293.24 306.00
  Q 290.63 303.38 288.65 300.29
  Z"
/>
<path fill="#0185c4" d="
  M 253.62 327.50
  L 253.59 332.31
  Q 253.58 332.79 254.06 332.79
  L 265.15 332.81
  Q 265.58 332.81 265.84 332.48
  L 268.93 328.67
  A 0.59 0.58 38.3 0 1 269.75 328.58
  L 275.47 333.03
  A 0.78 0.77 63.8 0 1 275.00 334.42
  L 224.74 334.42
  Q 224.31 334.42 224.24 333.99
  L 224.15 333.51
  A 0.60 0.60 0.0 0 1 224.75 332.80
  L 232.75 332.81
  A 0.56 0.55 90.0 0 0 233.30 332.25
  L 233.29 322.21
  Q 233.29 321.70 233.79 321.74
  L 240.59 322.20
  A 0.51 0.51 0.0 0 1 240.80 323.16
  L 239.71 323.76
  A 0.67 0.67 0.0 0 0 239.36 324.35
  L 239.37 332.19
  Q 239.37 332.77 239.94 332.77
  L 246.48 332.83
  Q 247.05 332.84 247.05 332.27
  L 247.03 319.47
  Q 247.03 318.96 247.53 319.01
  L 254.97 319.62
  A 0.42 0.42 0.0 0 1 255.13 320.41
  Q 252.68 321.68 253.71 324.88
  Q 253.85 325.32 254.31 325.32
  L 260.51 325.33
  A 0.97 0.96 -69.9 0 0 261.25 324.98
  L 264.05 321.49
  A 0.61 0.60 -51.3 0 1 264.90 321.39
  L 270.01 325.47
  A 0.80 0.80 0.0 0 1 269.51 326.89
  L 254.25 326.89
  Q 253.63 326.89 253.62 327.50
  Z"
/>
<path fill="#0185c4" d="
  M 300.27 343.75
  L 300.27 368.94
  Q 300.27 369.46 299.82 369.72
  Q 297.43 371.06 294.64 370.97
  Q 293.99 370.95 293.99 370.30
  L 293.99 351.27
  Q 293.99 350.22 293.39 351.07
  Q 289.78 356.12 284.87 359.92
  A 0.48 0.48 0.0 0 1 284.09 359.57
  Q 284.07 359.23 284.36 358.90
  C 288.57 354.09 291.67 344.62 292.93 338.43
  Q 293.04 337.89 292.49 337.88
  L 286.01 337.80
  A 0.76 0.74 81.9 0 1 285.31 337.26
  Q 285.16 336.73 285.36 336.47
  Q 285.49 336.29 285.87 336.29
  Q 289.67 336.33 293.48 336.26
  Q 293.99 336.25 293.99 335.74
  L 293.99 328.18
  A 0.51 0.51 0.0 0 0 293.43 327.67
  L 285.50 328.46
  A 0.47 0.46 32.1 0 1 285.29 327.56
  Q 293.85 324.46 301.38 319.38
  Q 301.88 319.05 302.33 319.45
  L 308.49 324.90
  A 0.51 0.51 0.0 0 1 308.07 325.79
  Q 304.23 325.21 300.57 326.60
  Q 300.27 326.72 300.27 327.04
  L 300.27 336.03
  A 0.47 0.47 0.0 0 0 301.13 336.30
  L 303.77 332.48
  A 0.59 0.59 0.0 0 1 304.66 332.39
  L 308.98 336.49
  A 0.74 0.74 0.0 0 1 308.53 337.77
  Q 305.19 338.01 301.63 337.70
  A 1.84 1.84 0.0 0 0 301.04 341.32
  C 304.12 342.08 310.52 346.12 307.77 350.20
  C 306.43 352.18 303.71 351.67 303.16 349.27
  Q 302.45 346.19 300.69 343.62
  Q 300.27 343.02 300.27 343.75
  Z"
/>
<path fill="#0185c4" d="
  M 355.94 365.26
  L 386.27 365.26
  Q 386.80 365.26 387.13 364.85
  L 390.37 360.88
  A 0.59 0.57 38.7 0 1 391.19 360.80
  L 397.18 365.59
  A 0.74 0.73 64.2 0 1 396.73 366.90
  L 355.94 366.89
  A 0.70 0.69 79.8 0 0 355.29 367.83
  C 356.42 370.85 351.17 371.22 349.08 371.09
  Q 348.71 371.07 348.71 370.70
  L 348.71 321.22
  Q 348.71 320.58 349.33 320.78
  C 352.36 321.79 354.83 323.29 358.07 323.31
  Q 371.44 323.40 384.80 323.30
  A 1.09 1.09 0.0 0 0 385.63 322.89
  L 388.55 319.29
  Q 388.86 318.90 389.25 319.20
  L 395.01 323.61
  A 0.74 0.73 63.5 0 1 394.57 324.93
  L 355.99 324.88
  Q 355.37 324.88 355.37 325.50
  L 355.37 364.69
  Q 355.37 365.26 355.94 365.26
  Z"
/>
<path fill="#0185c4" d="
  M 429.95 329.19
  C 430.26 338.95 419.83 335.37 423.81 330.91
  C 426.00 328.45 427.81 327.29 427.66 323.70
  A 0.57 0.57 0.0 0 1 428.78 323.51
  L 429.71 326.58
  Q 429.85 327.07 430.36 327.07
  L 435.89 327.09
  A 0.47 0.47 0.0 0 0 436.36 326.61
  L 436.35 319.49
  Q 436.35 319.07 436.76 319.11
  L 444.01 319.69
  Q 445.26 319.79 444.19 320.45
  L 443.18 321.07
  Q 442.67 321.38 442.67 321.98
  L 442.67 326.48
  Q 442.67 327.03 443.23 327.03
  L 449.47 327.06
  A 1.22 1.21 -68.1 0 0 450.35 326.68
  L 452.58 324.32
  Q 453.03 323.84 453.50 324.30
  L 458.01 328.61
  Q 458.37 328.96 457.93 329.20
  L 450.65 333.30
  Q 450.07 333.62 450.57 334.05
  L 453.60 336.64
  A 0.76 0.76 0.0 0 1 453.10 337.98
  Q 440.28 337.99 427.80 337.97
  Q 427.11 337.97 426.80 337.68
  Q 426.50 337.39 426.51 336.93
  Q 426.51 336.42 427.02 336.42
  L 444.79 336.41
  Q 445.31 336.41 445.62 335.99
  L 448.05 332.74
  A 0.67 0.65 27.0 0 1 448.79 332.51
  L 449.09 332.61
  Q 449.56 332.76 449.64 332.28
  L 450.21 329.09
  Q 450.29 328.64 449.84 328.63
  L 430.53 328.60
  Q 429.93 328.60 429.95 329.19
  Z"
/>
<path fill="#0185c4" d="
  M 414.00 355.48
  L 414.00 368.78
  A 1.19 1.17 75.0 0 1 413.42 369.80
  Q 411.28 371.05 408.76 370.98
  Q 408.10 370.96 408.10 370.31
  L 408.11 321.01
  Q 408.11 320.42 408.66 320.62
  C 412.50 322.03 417.55 325.40 420.49 320.17
  A 0.49 0.49 0.0 0 1 421.26 320.05
  L 426.49 324.99
  A 0.48 0.48 0.0 0 1 426.26 325.81
  L 424.93 326.10
  A 0.74 0.72 -80.7 0 0 424.47 326.44
  L 417.70 337.81
  Q 417.35 338.40 417.87 338.84
  Q 424.64 344.63 424.34 352.64
  C 424.18 357.01 421.96 359.90 417.40 359.75
  Q 416.83 359.73 416.86 359.17
  Q 416.97 356.88 416.17 355.03
  A 1.13 1.13 0.0 0 0 414.00 355.48
  Z
  M 415.86 338.33
  L 418.32 325.10
  Q 418.43 324.51 417.83 324.51
  L 414.49 324.52
  Q 414.00 324.52 414.00 325.01
  L 414.00 352.77
  Q 414.00 353.31 414.53 353.27
  L 417.40 353.10
  A 1.05 1.03 8.0 0 0 418.32 352.42
  C 419.80 348.41 417.80 342.15 415.94 338.83
  A 0.77 0.73 37.3 0 1 415.86 338.33
  Z"
/>
<path fill="#0185c4" d="
  M 330.10 350.86
  L 332.08 346.90
  Q 332.52 346.03 333.28 346.65
  L 337.46 350.05
  A 0.80 0.79 59.1 0 1 337.11 351.45
  L 330.03 352.84
  Q 329.50 352.94 329.50 353.48
  L 329.50 368.31
  Q 329.50 368.92 328.99 369.24
  Q 326.66 370.74 323.85 370.72
  Q 323.15 370.71 323.15 370.01
  L 323.17 354.67
  A 0.43 0.43 0.0 0 0 322.66 354.25
  L 305.68 357.51
  A 0.61 0.60 -5.1 0 1 304.96 356.91
  L 304.96 356.37
  Q 304.96 355.96 305.37 355.89
  L 322.55 352.68
  A 0.74 0.74 0.0 0 0 323.16 351.95
  L 323.16 320.91
  Q 323.16 320.27 323.79 320.34
  L 330.99 321.10
  A 0.46 0.46 0.0 0 1 331.20 321.94
  L 329.84 322.85
  Q 329.50 323.08 329.50 323.49
  L 329.50 350.72
  Q 329.50 352.07 330.10 350.86
  Z"
/>
<path fill="#0185c4" d="
  M 125.16 329.68
  L 130.05 327.66
  A 1.00 0.85 -49.5 0 1 130.49 327.59
  C 132.77 327.78 134.20 329.91 132.58 331.84
  C 130.75 334.02 125.60 335.21 122.88 335.79
  Q 122.39 335.89 122.24 336.37
  C 121.15 339.94 113.54 362.63 108.28 361.02
  C 104.49 359.87 106.64 354.90 108.26 352.89
  Q 113.94 345.82 117.08 337.28
  Q 117.29 336.71 116.68 336.75
  C 110.98 337.09 105.71 336.52 105.45 329.44
  A 0.47 0.46 -71.3 0 1 106.21 329.06
  Q 111.46 333.40 118.18 331.45
  Q 118.64 331.32 118.84 330.87
  Q 121.28 325.23 115.98 323.11
  A 0.43 0.43 0.0 0 1 115.93 322.33
  Q 120.30 319.89 124.78 322.32
  C 127.11 323.59 125.30 327.19 124.61 329.17
  Q 124.31 330.03 125.16 329.68
  Z"
/>
<path fill="#0185c4" d="
  M 183.09 343.05
  C 178.66 339.13 178.43 332.81 177.63 327.33
  Q 177.54 326.71 177.01 326.39
  L 173.25 324.14
  A 0.56 0.56 0.0 0 1 173.33 323.14
  Q 179.67 320.60 184.23 325.53
  A 1.22 1.22 0.0 0 1 184.55 326.47
  C 184.05 331.40 183.72 336.19 187.12 340.15
  A 0.71 0.71 0.0 0 0 188.01 340.30
  L 197.37 334.82
  A 1.21 1.21 0.0 0 0 197.67 332.97
  L 195.93 330.98
  Q 195.39 330.36 196.20 330.32
  Q 202.54 329.96 205.20 335.24
  C 206.12 337.05 204.88 338.38 203.14 338.91
  C 196.43 340.93 176.29 348.70 177.56 357.56
  C 178.49 364.09 194.17 361.73 198.46 360.67
  C 201.17 360.00 203.43 360.10 205.65 361.43
  A 2.42 2.42 0.0 0 1 206.71 364.28
  C 206.25 365.67 204.97 366.54 203.48 366.89
  C 195.95 368.69 182.06 369.83 176.09 364.27
  C 169.27 357.92 176.91 348.47 183.06 343.81
  Q 183.54 343.45 183.09 343.05
  Z"
/>
<path fill="#0185c4" d="
  M 65.17 343.84
  Q 73.01 344.10 80.35 346.88
  Q 80.78 347.05 80.96 346.62
  Q 82.94 341.85 78.63 339.86
  A 0.55 0.55 0.0 0 1 78.64 338.86
  Q 84.20 336.39 87.63 341.43
  A 0.87 0.83 34.5 0 1 87.76 342.05
  L 86.52 349.36
  Q 86.42 349.95 86.91 350.28
  C 89.75 352.22 93.08 354.12 93.24 357.99
  Q 93.33 360.22 91.55 360.86
  C 88.95 361.78 86.33 358.59 84.61 357.03
  Q 84.24 356.70 83.96 357.11
  Q 76.05 368.52 61.94 369.63
  A 0.53 0.52 33.5 0 1 61.73 368.61
  Q 73.83 364.69 79.25 353.27
  A 0.66 0.66 0.0 0 0 79.04 352.45
  Q 71.97 347.38 63.21 347.02
  Q 62.66 347.00 62.43 347.50
  Q 59.90 352.92 57.40 358.30
  C 55.47 362.44 49.21 368.45 45.66 362.04
  C 40.12 352.01 50.03 345.95 58.67 344.43
  A 1.15 1.15 0.0 0 0 59.45 343.90
  L 67.84 329.58
  A 0.62 0.62 0.0 0 0 67.08 328.69
  Q 63.07 330.25 59.71 332.66
  Q 58.14 333.79 56.40 332.89
  Q 51.44 330.33 52.68 324.86
  A 0.51 0.51 0.0 0 1 53.63 324.74
  C 55.61 328.65 58.90 327.25 62.80 326.23
  Q 66.15 325.35 69.15 323.57
  A 1.32 1.31 -51.0 0 1 70.24 323.45
  Q 73.91 324.67 76.20 327.77
  A 1.76 1.76 0.0 0 1 75.89 330.19
  Q 69.08 335.63 64.86 343.31
  Q 64.58 343.82 65.17 343.84
  Z
  M 56.91 347.36
  C 52.87 348.01 43.04 352.50 48.17 357.98
  Q 48.56 358.39 49.12 358.34
  C 51.93 358.06 56.12 349.76 57.21 347.80
  Q 57.51 347.27 56.91 347.36
  Z"
/>
<path fill="#fdfdfd" d="
  M 415.94 338.83
  C 417.80 342.15 419.80 348.41 418.32 352.42
  A 1.05 1.03 8.0 0 1 417.40 353.10
  L 414.53 353.27
  Q 414.00 353.31 414.00 352.77
  L 414.00 325.01
  Q 414.00 324.52 414.49 324.52
  L 417.83 324.51
  Q 418.43 324.51 418.32 325.10
  L 415.86 338.33
  A 0.77 0.73 37.3 0 0 415.94 338.83
  Z"
/>
<path fill="#0185c4" d="
  M 313.55 330.35
  Q 312.15 327.80 310.20 325.54
  Q 309.80 325.08 310.41 325.09
  Q 316.48 325.20 319.51 328.95
  C 321.68 331.65 320.05 336.25 316.36 334.96
  C 314.48 334.31 314.27 331.68 313.55 330.35
  Z"
/>
<path fill="#0185c4" d="
  M 369.73 333.75
  L 381.96 333.75
  A 1.04 1.03 19.2 0 0 382.77 333.36
  L 385.53 329.91
  Q 385.90 329.46 386.35 329.82
  L 391.73 334.11
  A 0.67 0.67 0.0 0 1 391.32 335.30
  L 378.74 335.33
  Q 378.31 335.33 378.28 335.76
  L 377.81 343.02
  Q 377.78 343.52 378.27 343.52
  L 384.71 343.53
  A 1.07 1.04 -70.1 0 0 385.53 343.13
  L 388.35 339.51
  Q 388.69 339.06 389.13 339.42
  L 394.70 343.96
  A 0.65 0.65 0.0 0 1 394.29 345.11
  L 378.15 345.15
  Q 377.54 345.15 377.39 345.74
  L 376.83 348.01
  A 0.46 0.46 0.0 0 0 377.23 348.58
  C 381.62 349.00 387.64 351.03 390.26 354.81
  C 393.12 358.93 388.33 363.90 385.83 359.96
  Q 382.17 354.19 376.66 350.20
  Q 376.23 349.89 376.00 350.37
  C 372.57 357.35 364.61 360.89 357.43 362.12
  A 0.43 0.43 0.0 0 1 357.21 361.30
  C 364.32 358.64 370.21 353.83 370.87 345.51
  Q 370.90 345.11 370.49 345.11
  L 358.25 345.14
  Q 357.60 345.15 357.50 344.50
  L 357.44 344.07
  Q 357.36 343.52 357.92 343.52
  L 370.75 343.53
  Q 371.27 343.53 371.29 343.00
  L 371.51 335.90
  Q 371.53 335.28 370.90 335.29
  L 368.16 335.32
  Q 367.55 335.33 367.13 335.78
  Q 363.43 339.72 358.53 342.08
  A 0.40 0.40 0.0 0 1 358.04 341.48
  Q 363.34 334.67 365.47 326.29
  A 0.64 0.63 -73.5 0 1 366.29 325.84
  L 373.44 328.24
  A 0.46 0.46 0.0 0 1 373.43 329.11
  L 372.14 329.51
  Q 371.62 329.67 371.32 330.13
  L 369.39 333.11
  Q 368.98 333.75 369.73 333.75
  Z"
/>
<path fill="#0185c4" d="
  M 133.59 353.01
  C 133.07 344.97 133.67 340.01 141.63 336.56
  A 1.06 1.06 0.0 0 0 141.77 334.69
  Q 139.43 333.22 136.59 332.95
  A 0.52 0.52 0.0 0 1 136.46 331.94
  C 140.85 330.40 148.16 331.11 150.37 335.90
  C 151.51 338.40 151.23 342.57 147.16 341.14
  C 134.34 336.64 136.83 346.46 138.60 353.80
  Q 138.72 354.28 139.20 354.42
  C 143.42 355.62 153.40 359.62 151.01 365.74
  Q 150.81 366.26 150.30 366.45
  Q 148.15 367.25 146.91 365.87
  Q 143.57 362.19 139.79 360.09
  A 0.39 0.39 0.0 0 0 139.22 360.47
  C 140.72 374.25 114.37 370.64 120.16 359.06
  C 122.40 354.59 128.48 353.22 133.08 353.52
  Q 133.63 353.56 133.59 353.01
  Z
  M 133.25 357.71
  C 130.24 356.95 124.29 356.67 122.43 359.91
  A 2.36 2.36 0.0 0 0 123.36 363.17
  C 127.34 365.29 134.20 364.32 133.76 358.31
  Q 133.72 357.83 133.25 357.71
  Z"
/>
<path fill="#0185c4" d="
  M 253.07 347.36
  Q 257.63 348.56 259.47 344.56
  A 0.63 0.63 0.0 0 1 260.44 344.34
  L 264.92 347.97
  A 0.59 0.59 0.0 0 1 264.55 349.02
  L 253.24 349.03
  A 0.85 0.85 0.0 0 0 253.09 350.71
  C 256.74 351.39 260.89 352.51 263.03 355.88
  C 264.06 357.50 263.96 359.32 262.38 360.49
  A 2.24 2.24 0.0 0 1 259.04 359.68
  Q 256.83 355.26 253.11 352.05
  Q 252.62 351.63 252.62 352.27
  L 252.63 361.87
  Q 252.63 362.51 252.02 362.65
  L 247.45 363.69
  Q 246.79 363.84 246.79 363.16
  L 246.84 355.25
  Q 246.84 354.53 246.31 355.02
  Q 241.59 359.43 235.64 361.94
  A 0.43 0.42 -76.0 0 1 235.21 361.22
  Q 241.02 356.42 244.09 349.54
  Q 244.32 349.01 243.75 349.01
  L 236.37 349.02
  A 0.62 0.61 -9.3 0 1 235.79 348.61
  L 235.65 348.21
  Q 235.40 347.49 236.16 347.49
  L 246.29 347.49
  Q 246.82 347.49 246.82 346.96
  L 246.80 336.46
  Q 246.79 335.97 247.29 336.02
  L 254.24 336.71
  Q 255.29 336.81 254.41 337.40
  L 253.09 338.29
  Q 252.63 338.60 252.63 339.16
  L 252.62 346.77
  Q 252.62 347.24 253.07 347.36
  Z"
/>
<path fill="#0185c4" d="
  M 265.27 366.75
  L 234.73 366.74
  A 0.53 0.52 90.0 0 0 234.21 367.27
  L 234.20 368.91
  Q 234.19 369.76 233.37 369.94
  L 228.71 370.97
  Q 228.04 371.12 228.04 370.43
  L 228.03 337.75
  Q 228.03 337.03 228.75 337.10
  L 235.53 337.74
  A 0.42 0.42 0.0 0 1 235.69 338.53
  L 234.65 339.08
  A 0.86 0.84 -14.0 0 0 234.19 339.83
  L 234.15 364.49
  Q 234.15 365.07 234.73 365.07
  L 265.47 365.06
  Q 265.82 365.06 265.82 364.71
  L 265.81 337.65
  A 0.50 0.49 2.7 0 1 266.36 337.16
  L 273.58 337.84
  A 0.46 0.45 -55.6 0 1 273.74 338.70
  L 272.34 339.41
  Q 272.00 339.58 272.00 339.97
  L 272.00 368.94
  A 1.08 1.07 -5.6 0 1 271.13 369.99
  L 266.45 370.95
  Q 265.78 371.09 265.78 370.41
  L 265.80 367.27
  Q 265.80 366.75 265.27 366.75
  Z"
/>
<path fill="#0185c4" d="
  M 263.87 340.40
  L 262.13 340.57
  A 0.30 0.30 0.0 0 0 261.97 340.63
  L 254.72 346.23
  A 0.30 0.30 0.0 0 1 254.25 345.89
  L 257.34 337.34
  A 0.30 0.30 0.0 0 1 257.74 337.16
  L 263.96 339.82
  A 0.30 0.30 0.0 0 1 263.87 340.40
  Z"
/>
<path fill="#0185c4" d="
  M 239.93 344.45
  C 239.62 342.11 238.45 340.31 237.81 338.02
  Q 237.65 337.46 238.23 337.58
  C 241.40 338.30 247.55 342.25 243.46 345.79
  A 2.15 2.14 65.7 0 1 239.93 344.45
  Z"
/>
<path fill="#0185c4" d="
  M 309.44 338.60
  C 312.34 338.65 316.21 339.86 318.19 342.04
  Q 321.57 345.78 317.65 348.28
  A 2.55 2.54 64.9 0 1 313.85 346.90
  Q 312.47 342.50 309.14 339.33
  A 0.43 0.42 -22.8 0 1 309.44 338.60
  Z"
/>
<path fill="#0185c4" d="
  M 437.20 347.18
  Q 436.81 365.42 419.46 370.28
  Q 416.65 371.06 419.01 369.35
  C 420.72 368.11 423.11 366.77 424.61 365.09
  Q 431.39 357.47 430.59 346.85
  Q 430.55 346.36 430.06 346.38
  Q 427.66 346.50 425.26 346.39
  Q 424.60 346.36 424.34 346.03
  Q 424.08 345.71 424.17 345.28
  Q 424.27 344.82 424.74 344.82
  L 448.53 344.82
  Q 449.09 344.82 449.41 344.37
  L 451.90 340.95
  Q 452.31 340.38 452.85 340.85
  L 457.90 345.34
  A 0.59 0.59 0.0 0 1 457.51 346.37
  L 447.89 346.48
  Q 447.27 346.49 447.27 347.11
  L 447.28 363.05
  Q 447.28 363.57 447.80 363.57
  L 452.98 363.57
  A 0.98 0.98 0.0 0 0 453.92 362.87
  L 456.00 355.97
  A 0.37 0.37 0.0 0 1 456.73 356.07
  L 456.83 362.66
  Q 456.84 363.14 457.23 363.42
  C 460.33 365.67 457.90 368.78 454.74 369.14
  C 450.25 369.65 441.15 371.38 441.18 365.24
  Q 441.21 356.20 441.33 347.15
  Q 441.34 346.40 440.59 346.41
  L 437.92 346.47
  Q 437.22 346.48 437.20 347.18
  Z"
/>
<path fill="#fdfdfd" d="
  M 48.17 357.98
  C 43.04 352.50 52.87 348.01 56.91 347.36
  Q 57.51 347.27 57.21 347.80
  C 56.12 349.76 51.93 358.06 49.12 358.34
  Q 48.56 358.39 48.17 357.98
  Z"
/>
<path fill="#fdfdfd" d="
  M 122.43 359.91
  C 124.29 356.67 130.24 356.95 133.25 357.71
  Q 133.72 357.83 133.76 358.31
  C 134.20 364.32 127.34 365.29 123.36 363.17
  A 2.36 2.36 0.0 0 1 122.43 359.91
  Z"
/>
<path fill="#0185c4" d="
  M 314.52 408.18
  L 314.58 386.95
  A 0.98 0.97 -81.0 0 0 313.91 386.02
  L 312.07 385.40
  A 0.31 0.31 0.0 0 1 312.05 384.82
  L 318.60 382.14
  Q 319.11 381.94 319.09 382.49
  Q 318.73 394.77 318.89 406.99
  C 318.91 408.81 319.90 409.73 321.64 409.80
  Q 322.17 409.82 322.05 410.34
  L 321.97 410.68
  Q 321.93 410.83 321.77 410.83
  L 311.59 410.76
  A 0.40 0.40 0.0 0 1 311.46 409.99
  L 313.85 409.13
  A 1.01 1.01 0.0 0 0 314.52 408.18
  Z"
/>
<path fill="#0185c4" d="
  M 376.03 408.26
  L 376.12 386.97
  A 0.93 0.92 10.7 0 0 375.53 386.11
  L 373.56 385.36
  A 0.30 0.29 44.3 0 1 373.55 384.81
  L 380.27 382.08
  A 0.18 0.18 0.0 0 1 380.51 382.25
  L 380.31 408.08
  Q 380.30 408.85 381.03 409.11
  L 383.52 409.98
  A 0.31 0.31 0.0 0 1 383.72 410.32
  Q 383.70 410.46 383.69 410.60
  Q 383.69 410.80 383.48 410.80
  L 373.20 410.81
  A 0.43 0.43 0.0 0 1 373.05 409.97
  L 375.44 409.10
  A 0.89 0.89 0.0 0 0 376.03 408.26
  Z"
/>
<path fill="#0185c4" d="
  M 364.66 384.18
  L 366.17 383.17
  Q 366.68 382.82 366.71 383.44
  L 367.07 392.57
  A 0.39 0.39 0.0 0 1 366.68 392.97
  L 366.17 392.97
  A 0.53 0.52 86.9 0 1 365.65 392.50
  C 365.14 388.13 362.42 384.09 357.68 384.05
  C 348.92 383.98 348.44 395.17 349.65 401.42
  C 351.37 410.32 362.18 411.59 366.26 403.86
  Q 366.52 403.37 366.83 403.28
  Q 367.07 403.21 367.29 403.29
  A 0.52 0.50 20.8 0 1 367.60 403.96
  Q 364.18 412.47 354.76 411.21
  C 335.18 408.57 342.81 374.35 363.71 384.25
  Q 364.21 384.49 364.66 384.18
  Z"
/>
<circle fill="#0185c4" cx="82.58" cy="385.69" r="3.03"/>
<circle fill="#0185c4" cx="393.08" cy="385.68" r="3.03"/>
<circle fill="#0185c4" cx="433.58" cy="385.69" r="3.03"/>
<path fill="#0185c4" d="
  M 44.73 388.08
  Q 44.97 396.81 44.81 405.76
  Q 44.75 409.67 48.16 409.74
  A 0.39 0.38 9.5 0 1 48.52 410.24
  Q 48.48 410.36 48.44 410.49
  Q 48.35 410.80 48.03 410.80
  L 40.00 410.78
  A 0.49 0.48 5.6 0 1 39.53 410.21
  Q 39.55 410.09 39.57 409.96
  Q 39.58 409.88 39.66 409.85
  L 42.50 409.02
  A 0.80 0.78 -8.2 0 0 43.07 408.28
  Q 43.56 391.22 43.18 386.74
  Q 42.95 383.98 39.83 384.22
  A 0.35 0.35 0.0 0 1 39.46 383.81
  Q 39.49 383.65 39.52 383.48
  A 0.49 0.49 0.0 0 1 40.02 383.04
  L 48.07 383.27
  A 0.96 0.94 79.1 0 1 48.93 383.86
  L 56.59 402.50
  Q 56.95 403.37 57.27 402.48
  L 64.13 383.76
  A 0.72 0.70 -80.2 0 1 64.78 383.29
  L 72.27 383.04
  Q 72.80 383.02 72.89 383.55
  Q 73.01 384.22 72.52 384.27
  Q 71.22 384.41 70.37 384.78
  A 0.91 0.90 79.0 0 0 69.82 385.60
  Q 69.60 395.43 69.78 405.22
  C 69.82 407.57 69.30 409.53 72.56 409.69
  Q 73.09 409.71 73.01 410.24
  Q 72.99 410.37 72.97 410.50
  A 0.40 0.40 0.0 0 1 72.56 410.84
  L 61.52 410.77
  A 0.36 0.35 10.1 0 1 61.19 410.30
  Q 61.24 410.15 61.29 410.00
  Q 61.37 409.75 61.63 409.76
  C 63.78 409.76 64.52 408.70 64.56 406.61
  Q 64.77 397.09 64.63 387.66
  A 0.12 0.12 0.0 0 0 64.40 387.62
  L 55.93 410.24
  A 0.72 0.72 0.0 0 1 54.59 410.27
  L 45.22 387.97
  A 0.26 0.25 -57.5 0 0 44.73 388.08
  Z"
/>
<path fill="#0185c4" d="
  M 197.87 384.66
  L 195.48 384.07
  A 0.45 0.45 0.0 0 1 195.55 383.19
  Q 201.85 382.75 208.19 383.13
  C 217.88 383.72 222.81 390.32 220.83 400.25
  C 218.27 413.10 204.90 411.09 195.42 410.70
  A 0.31 0.31 0.0 0 1 195.15 410.27
  Q 195.20 410.16 195.24 410.04
  A 0.35 0.34 -87.3 0 1 195.43 409.86
  L 198.03 408.96
  A 0.93 0.93 0.0 0 0 198.65 408.08
  L 198.60 385.58
  A 0.94 0.94 0.0 0 0 197.87 384.66
  Z
  M 203.64 386.94
  L 203.74 406.98
  A 2.53 2.53 0.0 0 0 206.29 409.50
  L 207.05 409.49
  A 10.68 8.79 89.7 0 0 215.78 398.77
  L 215.76 395.03
  A 10.68 8.79 89.7 0 0 206.91 384.39
  L 206.15 384.40
  A 2.53 2.53 0.0 0 0 203.64 386.94
  Z"
/>
<path fill="#fdfdfd" d="
  M 203.64 386.94
  A 2.53 2.53 0.0 0 1 206.15 384.40
  L 206.91 384.39
  A 10.68 8.79 89.7 0 1 215.76 395.03
  L 215.78 398.77
  A 10.68 8.79 89.7 0 1 207.05 409.49
  L 206.29 409.50
  A 2.53 2.53 0.0 0 1 203.74 406.98
  L 203.64 386.94
  Z"
/>
<path fill="#0185c4" d="
  M 142.09 394.45
  L 140.45 394.18
  A 0.48 0.48 0.0 0 1 140.41 393.24
  Q 144.70 392.07 146.07 387.81
  A 0.72 0.72 0.0 0 1 147.48 388.06
  L 147.28 392.27
  Q 147.26 392.81 147.79 392.85
  Q 149.56 392.97 151.24 392.87
  Q 152.32 392.81 151.79 394.03
  Q 151.61 394.45 151.16 394.45
  L 147.72 394.47
  Q 147.16 394.48 147.15 395.03
  L 147.02 408.16
  A 1.64 1.64 0.0 0 0 149.18 409.73
  L 151.50 408.95
  A 0.40 0.40 0.0 0 1 151.96 409.55
  Q 150.94 411.06 148.95 411.38
  Q 142.47 412.42 142.42 406.00
  Q 142.38 400.53 142.58 395.05
  Q 142.60 394.53 142.09 394.45
  Z"
/>
<path fill="#0185c4" d="
  M 281.00 394.94
  Q 280.66 401.10 280.84 407.25
  Q 280.89 408.89 281.76 409.58
  A 1.10 1.07 -34.2 0 0 282.77 409.76
  L 285.24 408.96
  A 0.42 0.42 0.0 0 1 285.71 409.61
  Q 284.74 410.95 282.70 411.34
  C 277.28 412.37 276.21 409.42 276.23 404.72
  Q 276.25 399.78 276.27 394.85
  A 0.48 0.48 0.0 0 0 275.85 394.37
  L 274.25 394.19
  A 0.51 0.50 41.0 0 1 274.18 393.20
  Q 278.07 392.20 279.47 388.55
  C 279.66 388.06 280.07 387.68 280.53 387.51
  A 0.52 0.51 80.8 0 1 281.23 388.02
  L 281.03 392.32
  Q 281.01 392.87 281.57 392.88
  L 285.00 392.89
  A 0.79 0.78 45.1 0 1 285.00 394.46
  L 281.51 394.46
  Q 281.03 394.46 281.00 394.94
  Z"
/>
<path fill="#0185c4" d="
  M 100.03 393.58
  C 101.10 392.90 101.91 392.37 103.18 392.20
  C 116.83 390.39 106.94 409.73 113.45 409.90
  A 0.31 0.31 0.0 0 1 113.75 410.23
  Q 113.74 410.39 113.73 410.55
  A 0.24 0.24 0.0 0 1 113.49 410.78
  L 104.48 410.81
  A 0.42 0.42 0.0 0 1 104.41 409.97
  C 105.65 409.75 106.41 409.13 106.46 407.77
  Q 106.57 404.59 106.46 397.51
  C 106.36 391.54 100.01 393.18 99.66 398.05
  Q 99.30 403.03 99.68 408.01
  Q 99.79 409.52 101.51 409.69
  Q 102.14 409.75 102.16 410.38
  Q 102.18 410.82 101.74 410.81
  L 92.86 410.78
  A 0.43 0.43 0.0 0 1 92.70 409.96
  L 94.41 409.25
  Q 94.92 409.05 94.96 408.50
  Q 95.52 400.99 95.22 397.21
  Q 95.09 395.57 93.07 395.05
  A 0.35 0.34 -49.5 0 1 93.02 394.40
  L 98.94 391.76
  Q 99.55 391.48 99.53 392.15
  L 99.48 393.27
  Q 99.46 393.95 100.03 393.58
  Z"
/>
<path fill="#0185c4" d="
  M 255.61 393.70
  Q 257.24 392.17 259.49 392.10
  C 272.08 391.73 262.63 409.47 268.72 409.81
  Q 269.20 409.83 269.16 410.32
  L 269.14 410.63
  Q 269.12 410.77 268.99 410.77
  L 259.99 410.80
  A 0.38 0.38 0.0 0 1 259.81 410.08
  L 261.59 409.17
  A 0.78 0.78 0.0 0 0 262.02 408.49
  C 262.08 406.44 262.95 396.85 260.87 394.21
  A 1.15 1.15 0.0 0 0 260.04 393.78
  Q 255.57 393.52 255.11 397.64
  Q 254.66 401.66 255.27 408.66
  A 0.74 0.74 0.0 0 0 255.73 409.28
  L 257.61 410.04
  A 0.24 0.23 15.3 0 1 257.75 410.28
  Q 257.74 410.42 257.74 410.55
  A 0.25 0.25 0.0 0 1 257.49 410.80
  L 248.31 410.79
  A 0.45 0.45 0.0 0 1 248.17 409.92
  L 249.91 409.33
  Q 250.58 409.10 250.59 408.40
  L 250.74 396.89
  A 1.48 1.47 9.6 0 0 249.72 395.46
  L 248.52 395.06
  A 0.35 0.35 0.0 0 1 248.49 394.40
  L 254.41 391.77
  Q 254.98 391.52 255.00 392.15
  L 255.04 393.46
  Q 255.06 394.22 255.61 393.70
  Z"
/>
<path fill="#0185c4" d="
  M 410.76 393.58
  C 413.65 390.95 418.89 391.88 420.57 395.04
  C 422.09 397.88 421.49 403.58 421.45 407.25
  Q 421.42 409.70 423.81 409.81
  Q 424.11 409.82 424.13 410.12
  L 424.16 410.42
  A 0.34 0.34 0.0 0 1 423.82 410.79
  L 414.99 410.80
  A 0.38 0.38 0.0 0 1 414.82 410.08
  L 416.46 409.25
  A 0.83 0.82 78.9 0 0 416.92 408.56
  Q 417.35 402.62 416.94 396.76
  C 416.57 391.45 410.18 393.62 410.04 398.51
  Q 409.83 405.69 410.15 408.02
  Q 410.40 409.83 412.47 409.88
  A 0.30 0.30 0.0 0 1 412.77 410.22
  Q 412.76 410.39 412.74 410.55
  A 0.25 0.24 2.5 0 1 412.49 410.77
  L 403.21 410.81
  A 0.42 0.42 0.0 0 1 403.06 410.00
  L 404.93 409.28
  Q 405.39 409.10 405.43 408.62
  Q 405.87 404.13 405.69 399.71
  C 405.60 397.53 406.44 395.62 403.41 395.03
  A 0.30 0.30 0.0 0 1 403.34 394.46
  L 409.46 391.74
  A 0.38 0.38 0.0 0 1 409.99 392.07
  L 410.04 393.28
  A 0.43 0.43 0.0 0 0 410.76 393.58
  Z"
/>
<path fill="#0185c4" d="
  M 80.48 408.24
  L 80.59 396.62
  A 0.99 0.97 9.3 0 0 79.90 395.68
  L 78.17 395.16
  A 0.34 0.34 0.0 0 1 78.14 394.52
  L 84.53 391.87
  A 0.38 0.38 0.0 0 1 85.05 392.23
  L 84.81 408.11
  Q 84.80 408.79 85.43 409.04
  L 87.88 409.99
  Q 88.07 410.07 88.06 410.27
  Q 88.05 410.40 88.05 410.53
  A 0.31 0.31 0.0 0 1 87.74 410.83
  L 77.71 410.76
  A 0.42 0.42 0.0 0 1 77.57 409.95
  L 79.81 409.17
  A 0.99 0.98 -9.6 0 0 80.48 408.24
  Z"
/>
<path fill="#0185c4" d="
  M 391.01 408.24
  L 391.12 396.68
  A 1.00 1.00 0.0 0 0 390.44 395.73
  L 388.64 395.15
  A 0.34 0.33 -47.1 0 1 388.62 394.52
  L 395.03 391.88
  A 0.38 0.37 -10.9 0 1 395.55 392.23
  L 395.34 408.26
  A 0.90 0.89 9.9 0 0 395.95 409.12
  L 398.34 409.92
  Q 398.73 410.05 398.67 410.46
  Q 398.62 410.78 398.25 410.78
  Q 393.31 410.76 388.31 410.82
  A 0.46 0.46 0.0 0 1 388.15 409.93
  L 390.36 409.15
  Q 391.00 408.92 391.01 408.24
  Z"
/>
<path fill="#0185c4" d="
  M 431.48 408.24
  L 431.59 396.75
  Q 431.60 395.81 430.69 395.58
  L 429.08 395.17
  A 0.33 0.33 0.0 0 1 429.04 394.55
  L 435.62 391.84
  A 0.41 0.41 0.0 0 1 436.18 392.25
  Q 435.69 399.59 435.91 407.01
  C 435.97 408.87 436.87 409.77 438.69 409.80
  A 0.38 0.37 2.9 0 1 439.06 410.20
  Q 439.05 410.36 439.04 410.53
  A 0.31 0.30 2.0 0 1 438.73 410.81
  L 428.59 410.76
  A 0.39 0.39 0.0 0 1 428.46 410.00
  L 430.82 409.16
  A 0.98 0.97 -9.7 0 0 431.48 408.24
  Z"
/>
<path fill="#0185c4" d="
  M 127.80 410.11
  C 118.82 416.53 111.98 400.97 127.53 400.31
  Q 128.10 400.29 128.15 399.72
  Q 128.44 396.84 127.59 394.18
  A 1.82 1.82 0.0 0 0 124.08 395.15
  C 125.57 401.56 117.52 399.80 119.85 395.45
  C 121.93 391.58 128.39 390.64 131.17 393.94
  C 133.42 396.61 132.37 404.24 132.33 407.93
  A 0.74 0.74 0.0 0 0 133.61 408.44
  L 134.68 407.28
  A 0.45 0.44 -17.0 0 1 135.44 407.68
  C 134.71 410.80 131.04 412.75 128.57 410.19
  Q 128.22 409.82 127.80 410.11
  Z
  M 127.35 401.54
  Q 122.08 401.99 122.91 407.46
  Q 123.22 409.55 125.26 409.75
  A 2.47 2.47 0.0 0 0 127.99 407.32
  L 128.06 402.20
  Q 128.06 401.48 127.35 401.54
  Z"
/>
<path fill="#0185c4" d="
  M 164.8968 411.6416
  A 9.88 9.07 93.5 0 1 156.4469 401.2263
  A 9.88 9.07 93.5 0 1 166.1032 391.9184
  A 9.88 9.07 93.5 0 1 174.5531 402.3337
  A 9.88 9.07 93.5 0 1 164.8968 411.6416
  Z
  M 165.4947 410.4700
  A 8.75 4.31 90.1 0 0 169.8200 401.7275
  A 8.75 4.31 90.1 0 0 165.5253 392.9700
  A 8.75 4.31 90.1 0 0 161.2000 401.7125
  A 8.75 4.31 90.1 0 0 165.4947 410.4700
  Z"
/>
<path fill="#0185c4" d="
  M 231.48 401.56
  C 231.01 408.23 236.96 412.46 242.26 407.21
  A 0.37 0.37 0.0 0 1 242.89 407.40
  L 242.96 407.80
  Q 242.98 407.89 242.92 407.96
  Q 237.95 413.89 231.44 410.63
  C 225.59 407.70 225.38 398.33 230.17 394.08
  C 235.78 389.10 242.70 393.06 243.11 400.38
  Q 243.14 401.00 242.52 401.01
  L 232.01 401.06
  Q 231.51 401.06 231.48 401.56
  Z
  M 231.95 399.48
  L 238.61 399.52
  A 0.28 0.28 0.0 0 0 238.89 399.25
  L 238.89 399.08
  A 5.57 3.53 -89.6 0 0 235.40 393.48
  L 235.24 393.48
  A 5.57 3.53 -89.6 0 0 231.67 399.02
  L 231.67 399.19
  A 0.28 0.28 0.0 0 0 231.95 399.48
  Z"
/>
<path fill="#0185c4" d="
  M 305.63 408.29
  L 306.38 407.31
  A 0.45 0.45 0.0 0 1 307.18 407.54
  Q 307.25 408.26 306.72 409.00
  Q 303.84 412.98 300.15 410.17
  Q 299.75 409.87 299.36 410.18
  C 291.59 416.35 282.94 401.78 299.43 400.20
  Q 299.94 400.15 299.96 399.64
  C 300.04 397.41 300.51 392.97 296.97 393.28
  Q 295.40 393.41 295.78 394.95
  C 297.34 401.36 289.91 400.00 291.35 395.83
  C 292.82 391.56 300.59 390.62 303.10 394.16
  C 305.12 397.01 304.07 404.06 304.08 407.78
  A 0.86 0.86 0.0 0 0 305.63 408.29
  Z
  M 297.09 401.92
  Q 293.09 404.17 295.02 408.62
  A 1.97 1.97 0.0 0 0 297.48 409.69
  C 300.56 408.60 299.79 405.62 299.79 403.51
  Q 299.79 400.41 297.09 401.92
  Z"
/>
<path fill="#0185c4" d="
  M 454.75 395.03
  A 1.99 1.99 0.0 0 0 451.20 393.74
  Q 447.33 398.59 449.03 405.26
  Q 450.48 410.96 456.14 409.09
  C 457.39 408.68 458.20 407.68 459.21 406.88
  A 0.47 0.47 0.0 0 1 459.89 407.51
  C 457.02 411.74 451.95 412.78 447.73 409.97
  C 440.87 405.42 443.79 392.05 452.84 391.98
  C 455.57 391.96 460.81 393.76 459.63 397.62
  C 458.91 399.99 455.48 399.90 454.71 397.59
  A 0.37 0.18 -70.7 0 1 454.70 397.50
  L 454.75 395.03
  Z"
/>
<ellipse fill="#fdfdfd" cx="0.00" cy="0.00" transform="translate(165.51,401.72) rotate(90.1)" rx="8.75" ry="4.31"/>
<path fill="#fdfdfd" d="
  M 231.95 399.48
  A 0.28 0.28 0.0 0 1 231.67 399.19
  L 231.67 399.02
  A 5.57 3.53 -89.6 0 1 235.24 393.48
  L 235.40 393.48
  A 5.57 3.53 -89.6 0 1 238.89 399.08
  L 238.89 399.25
  A 0.28 0.28 0.0 0 1 238.61 399.52
  L 231.95 399.48
  Z"
/>
<path fill="#fdfdfd" d="
  M 128.06 402.20
  L 127.99 407.32
  A 2.47 2.47 0.0 0 1 125.26 409.75
  Q 123.22 409.55 122.91 407.46
  Q 122.08 401.99 127.35 401.54
  Q 128.06 401.48 128.06 402.20
  Z"
/>
<path fill="#fdfdfd" d="
  M 297.09 401.92
  Q 299.79 400.41 299.79 403.51
  C 299.79 405.62 300.56 408.60 297.48 409.69
  A 1.97 1.97 0.0 0 1 295.02 408.62
  Q 293.09 404.17 297.09 401.92
  Z"
/>
</svg>
