<?xml version="1.0" standalone="no"?><svg xmlns="http://www.w3.org/2000/svg" viewBox="0 0 1440 320"><path fill="#BEEBFE" fill-opacity="1" d="M0,192L40,165.3C80,139,160,85,240,80C320,75,400,117,480,128C560,139,640,117,720,117.3C800,117,880,139,960,144C1040,149,1120,139,1200,149.3C1280,160,1360,192,1400,208L1440,224L1440,320L1400,320C1360,320,1280,320,1200,320C1120,320,1040,320,960,320C880,320,800,320,720,320C640,320,560,320,480,320C400,320,320,320,240,320C160,320,80,320,40,320L0,320Z"></path></svg>